<svg width="176" height="176" viewBox="0 0 176 176" fill="none" xmlns="http://www.w3.org/2000/svg">
<path d="M88 0L164.21 44V132L88 176L11.7898 132V44L88 0Z" fill="#D9D9D9"/>
<path d="M50.024 103.072V106H26.792V104.08L38.216 92.752C39.56 91.408 40.504 90.432 41.048 89.824C43.576 87.04 44.84 84.272 44.84 81.52C44.84 79.28 44.152 77.52 42.776 76.24C41.4 74.928 39.608 74.272 37.4 74.272C35.096 74.272 33.288 75.008 31.976 76.48C30.664 77.952 30.008 79.856 30.008 82.192V83.872H26.888V82.144C26.888 78.944 27.848 76.352 29.768 74.368C31.72 72.352 34.264 71.344 37.4 71.344C40.504 71.344 43.048 72.288 45.032 74.176C47.048 76.032 48.056 78.48 48.056 81.52C48.056 83.472 47.656 85.232 46.856 86.8C46.088 88.368 44.936 90 43.4 91.696C42.76 92.368 41.72 93.424 40.28 94.864L31.928 103.072H50.024ZM68.9473 71.344C72.6593 71.344 75.5073 72.464 77.4913 74.704C79.5073 76.944 80.5153 79.904 80.5153 83.584V94.336C80.5153 98.112 79.4913 101.104 77.4433 103.312C75.4273 105.488 72.5953 106.576 68.9473 106.576C65.2353 106.576 62.3873 105.456 60.4033 103.216C58.4193 100.944 57.4273 97.984 57.4273 94.336V83.584C57.4273 79.872 58.4353 76.912 60.4513 74.704C62.4993 72.464 65.3313 71.344 68.9473 71.344ZM68.9473 103.648C71.7313 103.648 73.8273 102.784 75.2353 101.056C76.6433 99.328 77.3473 97.072 77.3473 94.288V83.584C77.3473 80.768 76.6273 78.512 75.1873 76.816C73.7473 75.12 71.6673 74.272 68.9473 74.272C66.1953 74.272 64.0993 75.136 62.6593 76.864C61.2513 78.592 60.5473 80.832 60.5473 83.584V94.288C60.5473 97.104 61.2673 99.376 62.7073 101.104C64.1473 102.8 66.2273 103.648 68.9473 103.648ZM112.368 103.072V106H89.1358V104.08L100.56 92.752C101.904 91.408 102.848 90.432 103.392 89.824C105.92 87.04 107.184 84.272 107.184 81.52C107.184 79.28 106.496 77.52 105.12 76.24C103.744 74.928 101.952 74.272 99.7438 74.272C97.4398 74.272 95.6318 75.008 94.3198 76.48C93.0078 77.952 92.3518 79.856 92.3518 82.192V83.872H89.2318V82.144C89.2318 78.944 90.1918 76.352 92.1118 74.368C94.0638 72.352 96.6078 71.344 99.7438 71.344C102.848 71.344 105.392 72.288 107.376 74.176C109.392 76.032 110.4 78.48 110.4 81.52C110.4 83.472 110 85.232 109.2 86.8C108.432 88.368 107.28 90 105.744 91.696C105.104 92.368 104.064 93.424 102.624 94.864L94.2718 103.072H112.368ZM141.899 103.072V106H118.667V104.08L130.091 92.752C131.435 91.408 132.379 90.432 132.923 89.824C135.451 87.04 136.715 84.272 136.715 81.52C136.715 79.28 136.027 77.52 134.651 76.24C133.275 74.928 131.483 74.272 129.275 74.272C126.971 74.272 125.163 75.008 123.851 76.48C122.539 77.952 121.883 79.856 121.883 82.192V83.872H118.763V82.144C118.763 78.944 119.723 76.352 121.643 74.368C123.595 72.352 126.139 71.344 129.275 71.344C132.379 71.344 134.923 72.288 136.907 74.176C138.923 76.032 139.931 78.48 139.931 81.52C139.931 83.472 139.531 85.232 138.731 86.8C137.963 88.368 136.811 90 135.275 91.696C134.635 92.368 133.595 93.424 132.155 94.864L123.803 103.072H141.899Z" fill="black"/>
</svg>
