<svg width="1404" height="347" viewBox="0 0 1404 347" fill="none" xmlns="http://www.w3.org/2000/svg">
<rect x="145" y="2" width="272" height="343" stroke="#34324D" stroke-width="4"/>
<rect x="426" y="2" width="272" height="343" stroke="#34324D" stroke-width="4"/>
<rect x="706" y="2" width="272" height="343" stroke="#34324D" stroke-width="4"/>
<rect x="986" y="2" width="272" height="343" stroke="#34324D" stroke-width="4"/>
<path d="M320.466 32.9811L308.919 55.1523H302.079L313.148 34.4518H300.608V29.0469H320.466V32.9811Z" fill="#34324C"/>
<path d="M344.405 49.8209V55.1523H324.18V51.1078L333.888 42.3202C334.525 41.7319 335.016 41.2417 335.359 40.8495C335.727 40.4573 336.07 39.9425 336.389 39.3052C336.732 38.6434 336.903 37.9693 336.903 37.283C336.903 36.278 336.597 35.4936 335.984 34.9298C335.396 34.3415 334.587 34.0474 333.557 34.0474C332.503 34.0474 331.682 34.3783 331.093 35.0401C330.505 35.7019 330.211 36.5721 330.211 37.6506V39.0478H324.253V37.4668C324.253 34.746 325.124 32.5889 326.864 30.9956C328.629 29.4023 330.86 28.6057 333.557 28.6057C336.376 28.6057 338.668 29.341 340.434 30.8118C342.199 32.2825 343.081 34.366 343.081 37.0624C343.081 38.9253 342.591 40.5676 341.61 41.9893C340.654 43.3865 339.281 44.8572 337.492 46.4015L333.741 49.8209H344.405Z" fill="#34324C"/>
<path d="M348.431 55.1523V47.9457H355.308V55.1523H348.431Z" fill="#34324C"/>
<path d="M380.536 46.1073C380.536 49.0488 379.543 51.3652 377.557 53.0565C375.596 54.7479 373.144 55.5935 370.202 55.5935C367.212 55.5935 364.735 54.7479 362.774 53.0565C360.837 51.3407 359.869 49.0365 359.869 46.1441C359.869 44.1831 360.225 42.4795 360.936 41.0333C361.646 39.5626 362.737 37.8835 364.208 35.9961L369.651 29.0469H376.417L368.952 38.5331C370.006 37.8713 371.195 37.5403 372.519 37.5403C375.02 37.5403 376.981 38.3492 378.403 39.967C379.825 41.5848 380.536 43.6316 380.536 46.1073ZM374.431 46.1073C374.431 44.8327 374.039 43.8277 373.255 43.0923C372.495 42.3325 371.477 41.9525 370.202 41.9525C368.952 41.9525 367.935 42.3447 367.15 43.1291C366.366 43.889 365.974 44.894 365.974 46.1441C365.974 47.3697 366.366 48.3625 367.15 49.1223C367.935 49.8577 368.952 50.2254 370.202 50.2254C371.477 50.2254 372.495 49.8577 373.255 49.1223C374.039 48.3625 374.431 47.3575 374.431 46.1073Z" fill="#34324C"/>
<path d="M395.236 28.9366V55.1523H389.131V35.7755L382.77 39.342V33.6429L390.676 28.9366H395.236Z" fill="#34324C"/>
<path d="M575.583 48.6443V33.6429H593.749V38.6434H581.319V43.6806C582.423 42.3815 584.102 41.7319 586.357 41.7319C588.907 41.7319 590.942 42.5776 592.462 44.2689C593.982 45.9357 594.742 48.0438 594.742 50.5931V50.7401C594.742 53.6816 593.773 55.998 591.837 57.6893C589.925 59.3561 587.497 60.1896 584.556 60.1896C581.761 60.1896 579.383 59.4419 577.421 57.9467C575.46 56.4515 574.431 54.3679 574.333 51.6961H580.51C580.584 52.2844 580.841 52.8359 581.283 53.3507C581.724 53.8654 582.227 54.2331 582.79 54.4537C583.281 54.6743 583.869 54.7846 584.556 54.7846C585.732 54.7846 586.701 54.417 587.461 53.6816C588.221 52.9462 588.601 51.9902 588.601 50.8137V50.7034C588.601 49.4532 588.233 48.485 587.497 47.7987C586.786 47.0878 585.806 46.7324 584.556 46.7324C583.06 46.7324 582.006 47.1981 581.393 48.1296C581.319 48.2276 581.197 48.3992 581.025 48.6443H575.583Z" fill="#34324C"/>
<path d="M619.496 52.6521C619.496 54.417 618.994 55.8877 617.989 57.0643C616.983 58.2408 615.77 59.062 614.348 59.5277C612.951 59.969 611.394 60.1896 609.678 60.1896H608.575C605.853 60.1896 603.549 59.5645 601.661 58.3144C599.773 57.0643 598.829 55.1768 598.829 52.6521C598.829 51.2059 599.222 49.8945 600.006 48.7179C600.791 47.5413 601.857 46.7447 603.206 46.3279C602.789 46.1809 602.348 45.9603 601.882 45.6661C601.073 45.2249 600.435 44.5018 599.969 43.4968C599.504 42.4918 599.271 41.4745 599.271 40.445C599.271 39.4155 599.455 38.4841 599.822 37.6506C600.19 36.8172 600.668 36.1309 601.257 35.5916C601.869 35.0279 602.58 34.5744 603.389 34.2312C604.223 33.8635 605.069 33.6061 605.927 33.4591C606.809 33.2875 607.716 33.2017 608.648 33.2017H609.678C611.369 33.2017 612.889 33.4346 614.238 33.9003C615.586 34.3415 616.726 35.1259 617.658 36.2535C618.589 37.381 619.055 38.7782 619.055 40.445C619.055 41.8422 618.712 43.0678 618.025 44.1219C617.363 45.1759 616.395 45.9235 615.12 46.3647C616.174 46.6834 617.143 47.3207 618.025 48.2767C618.442 48.8159 618.798 49.4287 619.092 50.1151C619.362 50.8749 619.496 51.7206 619.496 52.6521ZM609.42 37.9816H608.869C607.864 37.9816 607.018 38.2512 606.331 38.7905C605.669 39.3052 605.338 40.0528 605.338 41.0333C605.338 41.9893 605.682 42.7492 606.368 43.313C607.055 43.8522 607.888 44.1219 608.869 44.1219H609.42C610.425 44.1219 611.259 43.8522 611.921 43.313C612.607 42.7737 612.951 42.0138 612.951 41.0333C612.951 40.0283 612.62 39.2684 611.958 38.7537C611.296 38.2389 610.45 37.9816 609.42 37.9816ZM609.494 48.7914H608.795C607.741 48.7914 606.846 49.0856 606.111 49.6739C605.4 50.2621 605.044 51.071 605.044 52.1006C605.044 53.1301 605.4 53.939 606.111 54.5273C606.846 55.1156 607.741 55.4097 608.795 55.4097H609.494C610.573 55.4097 611.467 55.1278 612.178 54.564C612.889 53.9757 613.245 53.1546 613.245 52.1006C613.245 51.0465 612.889 50.2376 612.178 49.6739C611.467 49.0856 610.573 48.7914 609.494 48.7914Z" fill="#34324C"/>
<path d="M624.198 59.7483V52.5418H631.075V59.7483H624.198Z" fill="#34324C"/>
<path d="M656.302 50.7034C656.302 53.6448 655.31 55.9612 653.324 57.6526C651.362 59.3439 648.911 60.1896 645.969 60.1896C642.978 60.1896 640.502 59.3439 638.541 57.6526C636.604 55.9367 635.636 53.6326 635.636 50.7401C635.636 48.7792 635.991 47.0756 636.702 45.6293C637.413 44.1586 638.504 42.4795 639.975 40.5921L645.417 33.6429H652.184L644.719 43.1291C645.773 42.4673 646.962 42.1364 648.286 42.1364C650.786 42.1364 652.748 42.9453 654.17 44.5631C655.591 46.1809 656.302 48.2276 656.302 50.7034ZM650.198 50.7034C650.198 49.4287 649.806 48.4237 649.021 47.6884C648.261 46.9285 647.244 46.5486 645.969 46.5486C644.719 46.5486 643.701 46.9407 642.917 47.7251C642.132 48.485 641.74 49.49 641.74 50.7401C641.74 51.9657 642.132 52.9585 642.917 53.7184C643.701 54.4537 644.719 54.8214 645.969 54.8214C647.244 54.8214 648.261 54.4537 649.021 53.7184C649.806 52.9585 650.198 51.9535 650.198 50.7034Z" fill="#34324C"/>
<path d="M675.773 52.7992L670.294 59.7483H663.528L670.993 50.2621C669.939 50.924 668.75 51.2549 667.426 51.2549C664.95 51.2549 662.989 50.446 661.542 48.8282C660.12 47.1859 659.409 45.1391 659.409 42.6879C659.409 39.7464 660.39 37.43 662.351 35.7387C664.337 34.0474 666.801 33.2017 669.743 33.2017C672.758 33.2017 675.234 34.0474 677.171 35.7387C679.108 37.43 680.076 39.7342 680.076 42.6511C680.076 44.5631 679.721 46.2789 679.01 47.7987C678.299 49.2939 677.22 50.9607 675.773 52.7992ZM666.69 39.7097C665.906 40.445 665.514 41.4378 665.514 42.6879C665.514 43.938 665.906 44.943 666.69 45.7029C667.475 46.4628 668.492 46.8427 669.743 46.8427C671.018 46.8427 672.035 46.4628 672.795 45.7029C673.579 44.943 673.972 43.9258 673.972 42.6511C673.972 41.3765 673.579 40.3838 672.795 39.6729C672.035 38.9375 671.018 38.5699 669.743 38.5699C668.492 38.5699 667.475 38.9498 666.69 39.7097Z" fill="#34324C"/>
<path d="M1146.24 52.2109C1146.24 54.0493 1145.71 55.5935 1144.66 56.8437C1143.6 58.0938 1142.33 58.964 1140.83 59.4542C1139.36 59.9444 1137.73 60.1896 1135.94 60.1896C1133.24 60.1896 1130.89 59.4787 1128.88 58.057C1126.87 56.6353 1125.75 54.6498 1125.53 52.1006H1131.71C1131.83 52.9585 1132.32 53.6326 1133.18 54.1228C1134.06 54.5885 1134.97 54.8214 1135.9 54.8214C1137.06 54.8214 1138.02 54.5885 1138.81 54.1228C1139.59 53.6571 1139.98 52.8972 1139.98 51.8432C1139.98 49.9557 1138.93 49.012 1136.82 49.012H1131.64V43.7542H1136.42C1137.28 43.7542 1137.96 43.5458 1138.48 43.1291C1138.99 42.7124 1139.25 42.0873 1139.25 41.2539C1139.25 40.298 1138.91 39.5994 1138.22 39.1581C1137.53 38.6924 1136.69 38.4595 1135.68 38.4595C1134.48 38.4595 1133.59 38.7537 1133 39.342C1132.43 39.8077 1132.12 40.3592 1132.04 40.9966H1125.97C1126.05 39.3542 1126.57 37.9203 1127.56 36.6947C1128.54 35.4691 1129.82 34.5376 1131.42 33.9003C1132.59 33.4346 1134.02 33.2017 1135.68 33.2017C1137.01 33.2017 1138.22 33.3365 1139.32 33.6061C1140.43 33.8513 1141.44 34.2557 1142.38 34.8195C1143.31 35.3588 1144.04 36.1309 1144.58 37.1359C1145.12 38.1409 1145.39 39.3297 1145.39 40.7024C1145.39 41.4133 1145.29 42.0628 1145.1 42.6511C1144.46 44.2444 1143.43 45.323 1142.01 45.8867C1142.52 46.0338 1143.02 46.2544 1143.52 46.5486C1145.33 47.8232 1146.24 49.7106 1146.24 52.2109Z" fill="#34324C"/>
<path d="M1170.63 54.417V59.7483H1150.4V55.7038L1160.11 46.9162C1160.75 46.3279 1161.24 45.8377 1161.58 45.4455C1161.95 45.0533 1162.29 44.5386 1162.61 43.9012C1162.95 43.2394 1163.13 42.5653 1163.13 41.879C1163.13 40.874 1162.82 40.0896 1162.21 39.5258C1161.62 38.9375 1160.81 38.6434 1159.78 38.6434C1158.73 38.6434 1157.9 38.9743 1157.32 39.6361C1156.73 40.298 1156.43 41.1681 1156.43 42.2467V43.6439H1150.48V42.0628C1150.48 39.342 1151.35 37.1849 1153.09 35.5916C1154.85 33.9983 1157.08 33.2017 1159.78 33.2017C1162.6 33.2017 1164.89 33.9371 1166.66 35.4078C1168.42 36.8785 1169.3 38.962 1169.3 41.6584C1169.3 43.5213 1168.81 45.1636 1167.83 46.5853C1166.88 47.9825 1165.5 49.4532 1163.71 50.9975L1159.96 54.417H1170.63Z" fill="#34324C"/>
<path d="M1174.65 59.7483V52.5418H1181.53V59.7483H1174.65Z" fill="#34324C"/>
<path d="M1197.01 33.1649C1200.13 33.1649 1202.58 34.0351 1204.37 35.7755C1206.16 37.4913 1207.05 39.869 1207.05 42.9085V50.4828C1207.05 53.5713 1206.13 55.9735 1204.29 57.6893C1202.48 59.3807 1200.05 60.2263 1197.01 60.2263C1193.9 60.2263 1191.45 59.3684 1189.66 57.6526C1187.87 55.9122 1186.97 53.5223 1186.97 50.4828V42.9085C1186.97 39.82 1187.88 37.43 1189.7 35.7387C1191.53 34.0229 1193.97 33.1649 1197.01 33.1649ZM1194.07 53.4977C1194.73 54.3066 1195.71 54.7111 1197.01 54.7111C1198.31 54.7111 1199.29 54.3066 1199.96 53.4977C1200.62 52.6889 1200.95 51.6226 1200.95 50.2989V43.0923C1200.95 41.7442 1200.62 40.6779 1199.96 39.8935C1199.29 39.0846 1198.31 38.6802 1197.01 38.6802C1195.71 38.6802 1194.73 39.0846 1194.07 39.8935C1193.41 40.7024 1193.08 41.7687 1193.08 43.0923V50.2989C1193.08 51.6226 1193.41 52.6889 1194.07 53.4977Z" fill="#34324C"/>
<path d="M1231.01 37.5771L1219.46 59.7483H1212.62L1223.69 39.0478H1211.15V33.6429H1231.01V37.5771Z" fill="#34324C"/>
<path d="M847.745 54.417V59.7483H827.519V55.7038L837.227 46.9162C837.865 46.3279 838.355 45.8377 838.698 45.4455C839.066 45.0533 839.409 44.5386 839.728 43.9012C840.071 43.2394 840.243 42.5653 840.243 41.879C840.243 40.874 839.936 40.0896 839.324 39.5258C838.735 38.9375 837.926 38.6434 836.896 38.6434C835.842 38.6434 835.021 38.9743 834.433 39.6361C833.844 40.298 833.55 41.1681 833.55 42.2467V43.6439H827.593V42.0628C827.593 39.342 828.463 37.1849 830.204 35.5916C831.969 33.9983 834.2 33.2017 836.896 33.2017C839.716 33.2017 842.008 33.9371 843.773 35.4078C845.538 36.8785 846.421 38.962 846.421 41.6584C846.421 43.5213 845.931 45.1636 844.95 46.5853C843.994 47.9825 842.621 49.4532 840.831 50.9975L837.08 54.417H847.745Z" fill="#34324C"/>
<path d="M871.044 52.2109C871.044 54.0493 870.517 55.5935 869.463 56.8437C868.409 58.0938 867.134 58.964 865.639 59.4542C864.168 59.9444 862.538 60.1896 860.748 60.1896C858.051 60.1896 855.698 59.4787 853.687 58.057C851.677 56.6353 850.562 54.6498 850.341 52.1006H856.519C856.642 52.9585 857.132 53.6326 857.99 54.1228C858.872 54.5885 859.78 54.8214 860.711 54.8214C861.863 54.8214 862.832 54.5885 863.616 54.1228C864.401 53.6571 864.793 52.8972 864.793 51.8432C864.793 49.9557 863.739 49.012 861.63 49.012H856.445V43.7542H861.226C862.084 43.7542 862.771 43.5458 863.285 43.1291C863.8 42.7124 864.058 42.0873 864.058 41.2539C864.058 40.298 863.714 39.5994 863.028 39.1581C862.341 38.6924 861.496 38.4595 860.491 38.4595C859.289 38.4595 858.394 38.7537 857.806 39.342C857.242 39.8077 856.923 40.3592 856.85 40.9966H850.782C850.856 39.3542 851.383 37.9203 852.364 36.6947C853.344 35.4691 854.631 34.5376 856.225 33.9003C857.401 33.4346 858.823 33.2017 860.491 33.2017C861.814 33.2017 863.028 33.3365 864.131 33.6061C865.234 33.8513 866.252 34.2557 867.183 34.8195C868.115 35.3588 868.85 36.1309 869.39 37.1359C869.929 38.1409 870.199 39.3297 870.199 40.7024C870.199 41.4133 870.101 42.0628 869.905 42.6511C869.267 44.2444 868.237 45.323 866.816 45.8867C867.33 46.0338 867.833 46.2544 868.323 46.5486C870.137 47.8232 871.044 49.7106 871.044 52.2109Z" fill="#34324C"/>
<path d="M895.73 52.6521C895.73 54.417 895.227 55.8877 894.222 57.0643C893.217 58.2408 892.003 59.062 890.581 59.5277C889.184 59.969 887.627 60.1896 885.911 60.1896H884.808C882.087 60.1896 879.782 59.5645 877.894 58.3144C876.007 57.0643 875.063 55.1768 875.063 52.6521C875.063 51.2059 875.455 49.8945 876.24 48.7179C877.024 47.5413 878.091 46.7447 879.439 46.3279C879.022 46.1809 878.581 45.9603 878.115 45.6661C877.306 45.2249 876.669 44.5018 876.203 43.4968C875.737 42.4918 875.504 41.4745 875.504 40.445C875.504 39.4155 875.688 38.4841 876.056 37.6506C876.424 36.8172 876.902 36.1309 877.49 35.5916C878.103 35.0279 878.814 34.5744 879.623 34.2312C880.456 33.8635 881.302 33.6061 882.16 33.4591C883.043 33.2875 883.95 33.2017 884.881 33.2017H885.911C887.603 33.2017 889.123 33.4346 890.471 33.9003C891.82 34.3415 892.959 35.1259 893.891 36.2535C894.823 37.381 895.288 38.7782 895.288 40.445C895.288 41.8422 894.945 43.0678 894.259 44.1219C893.597 45.1759 892.629 45.9235 891.354 46.3647C892.408 46.6834 893.376 47.3207 894.259 48.2767C894.675 48.8159 895.031 49.4287 895.325 50.1151C895.595 50.8749 895.73 51.7206 895.73 52.6521ZM885.654 37.9816H885.102C884.097 37.9816 883.251 38.2512 882.565 38.7905C881.903 39.3052 881.572 40.0528 881.572 41.0333C881.572 41.9893 881.915 42.7492 882.602 43.313C883.288 43.8522 884.122 44.1219 885.102 44.1219H885.654C886.659 44.1219 887.492 43.8522 888.154 43.313C888.841 42.7737 889.184 42.0138 889.184 41.0333C889.184 40.0283 888.853 39.2684 888.191 38.7537C887.529 38.2389 886.683 37.9816 885.654 37.9816ZM885.727 48.7914H885.029C883.974 48.7914 883.08 49.0856 882.344 49.6739C881.633 50.2621 881.278 51.071 881.278 52.1006C881.278 53.1301 881.633 53.939 882.344 54.5273C883.08 55.1156 883.974 55.4097 885.029 55.4097H885.727C886.806 55.4097 887.701 55.1278 888.412 54.564C889.123 53.9757 889.478 53.1546 889.478 52.1006C889.478 51.0465 889.123 50.2376 888.412 49.6739C887.701 49.0856 886.806 48.7914 885.727 48.7914Z" fill="#34324C"/>
<path d="M900.431 59.7483V52.5418H907.308V59.7483H900.431Z" fill="#34324C"/>
<path d="M922.791 33.1649C925.904 33.1649 928.356 34.0351 930.146 35.7755C931.935 37.4913 932.83 39.869 932.83 42.9085V50.4828C932.83 53.5713 931.911 55.9735 930.072 57.6893C928.258 59.3807 925.831 60.2263 922.791 60.2263C919.677 60.2263 917.226 59.3684 915.436 57.6526C913.646 55.9122 912.752 53.5223 912.752 50.4828V42.9085C912.752 39.82 913.659 37.43 915.473 35.7387C917.312 34.0229 919.751 33.1649 922.791 33.1649ZM919.849 53.4977C920.511 54.3066 921.492 54.7111 922.791 54.7111C924.09 54.7111 925.071 54.3066 925.733 53.4977C926.395 52.6889 926.726 51.6226 926.726 50.2989V43.0923C926.726 41.7442 926.395 40.6779 925.733 39.8935C925.071 39.0846 924.09 38.6802 922.791 38.6802C921.492 38.6802 920.511 39.0846 919.849 39.8935C919.187 40.7024 918.856 41.7687 918.856 43.0923V50.2989C918.856 51.6226 919.187 52.6889 919.849 53.4977Z" fill="#34324C"/>
<path d="M957.628 52.2109C957.628 54.0493 957.101 55.5935 956.047 56.8437C954.992 58.0938 953.718 58.964 952.222 59.4542C950.751 59.9444 949.121 60.1896 947.331 60.1896C944.635 60.1896 942.281 59.4787 940.271 58.057C938.26 56.6353 937.145 54.6498 936.924 52.1006H943.102C943.225 52.9585 943.715 53.6326 944.573 54.1228C945.456 54.5885 946.363 54.8214 947.294 54.8214C948.447 54.8214 949.415 54.5885 950.2 54.1228C950.984 53.6571 951.376 52.8972 951.376 51.8432C951.376 49.9557 950.322 49.012 948.214 49.012H943.029V43.7542H947.809C948.667 43.7542 949.354 43.5458 949.869 43.1291C950.383 42.7124 950.641 42.0873 950.641 41.2539C950.641 40.298 950.298 39.5994 949.611 39.1581C948.925 38.6924 948.079 38.4595 947.074 38.4595C945.872 38.4595 944.978 38.7537 944.389 39.342C943.826 39.8077 943.507 40.3592 943.433 40.9966H937.366C937.439 39.3542 937.966 37.9203 938.947 36.6947C939.927 35.4691 941.215 34.5376 942.808 33.9003C943.985 33.4346 945.407 33.2017 947.074 33.2017C948.398 33.2017 949.611 33.3365 950.714 33.6061C951.818 33.8513 952.835 34.2557 953.767 34.8195C954.698 35.3588 955.434 36.1309 955.973 37.1359C956.512 38.1409 956.782 39.3297 956.782 40.7024C956.782 41.4133 956.684 42.0628 956.488 42.6511C955.85 44.2444 954.821 45.323 953.399 45.8867C953.914 46.0338 954.416 46.2544 954.907 46.5486C956.721 47.8232 957.628 49.7106 957.628 52.2109Z" fill="#34324C"/>
<path d="M1032.27 35.8306V62.0464H1026.17V42.6695L1019.81 46.236V40.537L1027.71 35.8306H1032.27Z" fill="#34324C"/>
<path d="M1058.3 53.0014C1058.3 55.9428 1057.31 58.2592 1055.32 59.9506C1053.36 61.6419 1050.91 62.4876 1047.97 62.4876C1044.97 62.4876 1042.5 61.6419 1040.54 59.9506C1038.6 58.2347 1037.63 55.9306 1037.63 53.0381C1037.63 51.0772 1037.99 49.3736 1038.7 47.9274C1039.41 46.4566 1040.5 44.7776 1041.97 42.8901L1047.41 35.9409H1054.18L1046.72 45.4271C1047.77 44.7653 1048.96 44.4344 1050.28 44.4344C1052.78 44.4344 1054.74 45.2433 1056.17 46.8611C1057.59 48.4789 1058.3 50.5256 1058.3 53.0014ZM1052.19 53.0014C1052.19 51.7267 1051.8 50.7217 1051.02 49.9864C1050.26 49.2265 1049.24 48.8466 1047.97 48.8466C1046.72 48.8466 1045.7 49.2388 1044.91 50.0232C1044.13 50.783 1043.74 51.788 1043.74 53.0381C1043.74 54.2637 1044.13 55.2565 1044.91 56.0164C1045.7 56.7517 1046.72 57.1194 1047.97 57.1194C1049.24 57.1194 1050.26 56.7517 1051.02 56.0164C1051.8 55.2565 1052.19 54.2515 1052.19 53.0014Z" fill="#34324C"/>
<path d="M751.655 55.0972L746.176 62.0464H739.409L746.875 52.5602C745.82 53.222 744.631 53.5529 743.307 53.5529C740.831 53.5529 738.87 52.744 737.424 51.1262C736.002 49.4839 735.291 47.4371 735.291 44.9859C735.291 42.0444 736.271 39.728 738.233 38.0367C740.219 36.3454 742.682 35.4997 745.624 35.4997C748.64 35.4997 751.116 36.3454 753.052 38.0367C754.989 39.728 755.958 42.0322 755.958 44.9491C755.958 46.8611 755.602 48.5769 754.891 50.0967C754.18 51.5919 753.102 53.2588 751.655 55.0972ZM742.572 42.0077C741.788 42.743 741.395 43.7358 741.395 44.9859C741.395 46.236 741.788 47.241 742.572 48.0009C743.357 48.7608 744.374 49.1407 745.624 49.1407C746.899 49.1407 747.916 48.7608 748.676 48.0009C749.461 47.241 749.853 46.2238 749.853 44.9491C749.853 43.6745 749.461 42.6818 748.676 41.9709C747.916 41.2355 746.899 40.8679 745.624 40.8679C744.374 40.8679 743.357 41.2478 742.572 42.0077Z" fill="#34324C"/>
<path d="M780.597 54.9501C780.597 56.715 780.094 58.1857 779.089 59.3623C778.084 60.5389 776.87 61.36 775.448 61.8257C774.051 62.267 772.494 62.4876 770.778 62.4876H769.675C766.953 62.4876 764.649 61.8625 762.761 60.6124C760.874 59.3623 759.93 57.4748 759.93 54.9501C759.93 53.5039 760.322 52.1925 761.107 51.0159C761.891 49.8393 762.957 49.0427 764.306 48.626C763.889 48.4789 763.448 48.2583 762.982 47.9641C762.173 47.5229 761.536 46.7998 761.07 45.7948C760.604 44.7898 760.371 43.7726 760.371 42.743C760.371 41.7135 760.555 40.7821 760.923 39.9487C761.29 39.1152 761.768 38.4289 762.357 37.8896C762.97 37.3259 763.681 36.8724 764.49 36.5292C765.323 36.1615 766.169 35.9042 767.027 35.7571C767.91 35.5855 768.817 35.4997 769.748 35.4997H770.778C772.47 35.4997 773.99 35.7326 775.338 36.1983C776.686 36.6395 777.826 37.4239 778.758 38.5515C779.69 39.679 780.155 41.0762 780.155 42.743C780.155 44.1402 779.812 45.3658 779.126 46.4199C778.464 47.4739 777.495 48.2215 776.221 48.6627C777.275 48.9814 778.243 49.6187 779.126 50.5747C779.542 51.1139 779.898 51.7267 780.192 52.4131C780.462 53.173 780.597 54.0186 780.597 54.9501ZM770.521 40.2796H769.969C768.964 40.2796 768.118 40.5492 767.432 41.0885C766.77 41.6032 766.439 42.3508 766.439 43.3313C766.439 44.2873 766.782 45.0472 767.468 45.611C768.155 46.1502 768.988 46.4199 769.969 46.4199H770.521C771.526 46.4199 772.359 46.1502 773.021 45.611C773.708 45.0717 774.051 44.3118 774.051 43.3313C774.051 42.3263 773.72 41.5665 773.058 41.0517C772.396 40.5369 771.55 40.2796 770.521 40.2796ZM770.594 51.0894H769.895C768.841 51.0894 767.946 51.3836 767.211 51.9719C766.5 52.5602 766.145 53.3691 766.145 54.3986C766.145 55.4281 766.5 56.237 767.211 56.8253C767.946 57.4136 768.841 57.7077 769.895 57.7077H770.594C771.673 57.7077 772.568 57.4258 773.279 56.862C773.99 56.2737 774.345 55.4526 774.345 54.3986C774.345 53.3445 773.99 52.5356 773.279 51.9719C772.568 51.3836 771.673 51.0894 770.594 51.0894Z" fill="#34324C"/>
<path d="M470.815 52.1189V57.4503H450.589V53.4058L460.297 44.6182C460.935 44.0299 461.425 43.5397 461.768 43.1475C462.136 42.7553 462.479 42.2405 462.798 41.6032C463.141 40.9414 463.313 40.2673 463.313 39.581C463.313 38.576 463.006 37.7916 462.393 37.2278C461.805 36.6395 460.996 36.3454 459.966 36.3454C458.912 36.3454 458.091 36.6763 457.503 37.3381C456.914 37.9999 456.62 38.8701 456.62 39.9487V41.3459H450.663V39.7648C450.663 37.044 451.533 34.8869 453.274 33.2936C455.039 31.7003 457.27 30.9037 459.966 30.9037C462.786 30.9037 465.078 31.639 466.843 33.1098C468.608 34.5805 469.491 36.664 469.491 39.3604C469.491 41.2233 469 42.8656 468.02 44.2873C467.064 45.6845 465.691 47.1552 463.901 48.6995L460.15 52.1189H470.815Z" fill="#34324C"/>
<path d="M494.703 50.3541C494.703 52.1189 494.2 53.5897 493.195 54.7663C492.19 55.9428 490.976 56.764 489.555 57.2297C488.157 57.6709 486.6 57.8915 484.884 57.8915H483.781C481.06 57.8915 478.755 57.2665 476.868 56.0164C474.98 54.7663 474.036 52.8788 474.036 50.3541C474.036 48.9079 474.428 47.5965 475.213 46.4199C475.997 45.2433 477.064 44.4466 478.412 44.0299C477.995 43.8829 477.554 43.6622 477.088 43.3681C476.279 42.9269 475.642 42.2038 475.176 41.1988C474.71 40.1938 474.477 39.1765 474.477 38.147C474.477 37.1175 474.661 36.186 475.029 35.3526C475.397 34.5192 475.875 33.8329 476.463 33.2936C477.076 32.7298 477.787 32.2764 478.596 31.9332C479.43 31.5655 480.275 31.3081 481.133 31.1611C482.016 30.9895 482.923 30.9037 483.855 30.9037H484.884C486.576 30.9037 488.096 31.1365 489.444 31.6023C490.793 32.0435 491.933 32.8279 492.864 33.9554C493.796 35.083 494.262 36.4802 494.262 38.147C494.262 39.5442 493.918 40.7698 493.232 41.8238C492.57 42.8779 491.602 43.6255 490.327 44.0667C491.381 44.3854 492.349 45.0227 493.232 45.9786C493.649 46.5179 494.004 47.1307 494.298 47.8171C494.568 48.5769 494.703 49.4226 494.703 50.3541ZM484.627 35.6835H484.075C483.07 35.6835 482.224 35.9532 481.538 36.4924C480.876 37.0072 480.545 37.7548 480.545 38.7353C480.545 39.6913 480.888 40.4512 481.575 41.0149C482.261 41.5542 483.095 41.8238 484.075 41.8238H484.627C485.632 41.8238 486.466 41.5542 487.128 41.0149C487.814 40.4757 488.157 39.7158 488.157 38.7353C488.157 37.7303 487.826 36.9704 487.164 36.4557C486.502 35.9409 485.657 35.6835 484.627 35.6835ZM484.7 46.4934H484.002C482.948 46.4934 482.053 46.7875 481.317 47.3758C480.606 47.9641 480.251 48.773 480.251 49.8025C480.251 50.8321 480.606 51.641 481.317 52.2292C482.053 52.8175 482.948 53.1117 484.002 53.1117H484.7C485.779 53.1117 486.674 52.8298 487.385 52.266C488.096 51.6777 488.451 50.8566 488.451 49.8025C488.451 48.7485 488.096 47.9396 487.385 47.3758C486.674 46.7875 485.779 46.4934 484.7 46.4934Z" fill="#34324C"/>
<path d="M194.718 49.9128C194.718 51.7513 194.191 53.2955 193.137 54.5456C192.083 55.7958 190.808 56.6659 189.312 57.1562C187.841 57.6464 186.211 57.8915 184.421 57.8915C181.725 57.8915 179.371 57.1807 177.361 55.759C175.351 54.3373 174.235 52.3518 174.014 49.8025H180.192C180.315 50.6605 180.805 51.3346 181.663 51.8248C182.546 52.2905 183.453 52.5234 184.385 52.5234C185.537 52.5234 186.505 52.2905 187.29 51.8248C188.074 51.3591 188.466 50.5992 188.466 49.5452C188.466 47.6577 187.412 46.714 185.304 46.714H180.119V41.4562H184.899C185.757 41.4562 186.444 41.2478 186.959 40.8311C187.474 40.4144 187.731 39.7893 187.731 38.9559C187.731 37.9999 187.388 37.3013 186.701 36.8601C186.015 36.3944 185.169 36.1615 184.164 36.1615C182.963 36.1615 182.068 36.4557 181.479 37.044C180.916 37.5097 180.597 38.0612 180.523 38.6985H174.456C174.529 37.0562 175.056 35.6223 176.037 34.3967C177.018 33.1711 178.305 32.2396 179.898 31.6023C181.075 31.1365 182.497 30.9037 184.164 30.9037C185.488 30.9037 186.701 31.0385 187.805 31.3081C188.908 31.5533 189.925 31.9577 190.857 32.5215C191.788 33.0607 192.524 33.8329 193.063 34.8379C193.603 35.8429 193.872 37.0317 193.872 38.4044C193.872 39.1152 193.774 39.7648 193.578 40.3531C192.941 41.9464 191.911 43.0249 190.489 43.5887C191.004 43.7358 191.506 43.9564 191.997 44.2505C193.811 45.5252 194.718 47.4126 194.718 49.9128Z" fill="#34324C"/>
<path d="M219.109 52.1189V57.4503H198.883V53.4058L208.592 44.6182C209.229 44.0299 209.719 43.5397 210.063 43.1475C210.43 42.7553 210.774 42.2405 211.092 41.6032C211.436 40.9414 211.607 40.2673 211.607 39.581C211.607 38.576 211.301 37.7916 210.688 37.2278C210.099 36.6395 209.29 36.3454 208.261 36.3454C207.207 36.3454 206.385 36.6763 205.797 37.3381C205.209 37.9999 204.914 38.8701 204.914 39.9487V41.3459H198.957V39.7648C198.957 37.044 199.827 34.8869 201.568 33.2936C203.333 31.7003 205.564 30.9037 208.261 30.9037C211.08 30.9037 213.372 31.639 215.137 33.1098C216.903 34.5805 217.785 36.664 217.785 39.3604C217.785 41.2233 217.295 42.8656 216.314 44.2873C215.358 45.6845 213.985 47.1552 212.196 48.6995L208.445 52.1189H219.109Z" fill="#34324C"/>
<path d="M1123.16 143.47C1111 143.47 1104.92 146.754 1104.92 153.323C1104.92 159.01 1109.63 162.344 1119.04 163.324C1122.87 163.717 1125.51 163.962 1126.99 164.06C1132.48 164.354 1137.23 164.795 1141.25 165.383C1145.27 165.972 1149.54 167.001 1154.05 168.472C1158.56 169.943 1162.24 171.855 1165.08 174.208C1167.93 176.561 1170.28 179.748 1172.14 183.768C1174.1 187.788 1175.09 192.543 1175.09 198.034C1175.09 204.309 1173.71 209.75 1170.97 214.359C1168.22 218.967 1164.49 222.497 1159.79 224.948C1155.18 227.301 1150.32 229.017 1145.23 230.095C1140.13 231.174 1134.63 231.713 1128.75 231.713C1120.51 231.713 1112.96 230.733 1106.1 228.772C1099.23 226.811 1093.01 223.281 1087.42 218.183C1081.93 213.084 1078.25 206.662 1076.38 198.916H1102.71C1103.4 200.485 1104.33 201.907 1105.51 203.181C1106.69 204.75 1108.35 206.123 1110.51 207.299C1115.02 210.143 1121.1 211.564 1128.75 211.564C1131.01 211.564 1133.16 211.417 1135.22 211.123C1137.28 210.829 1139.44 210.29 1141.7 209.505C1143.95 208.721 1145.76 207.495 1147.14 205.828C1148.51 204.162 1149.2 202.152 1149.2 199.798C1149.2 195.778 1147.82 192.984 1145.08 191.415C1142.43 189.847 1138.75 188.817 1134.05 188.327C1131.01 187.935 1128.21 187.64 1125.66 187.444C1094.77 185.581 1079.33 174.551 1079.33 154.353C1079.33 149.745 1080.21 145.627 1081.97 141.999C1083.84 138.371 1086.19 135.43 1089.04 133.174C1091.98 130.919 1095.41 129.056 1099.33 127.586C1103.25 126.017 1107.18 124.938 1111.1 124.35C1115.02 123.762 1119.04 123.468 1123.16 123.468C1128.75 123.468 1134.05 123.958 1139.05 124.938C1144.05 125.919 1148.9 127.488 1153.61 129.645C1158.41 131.802 1162.48 134.89 1165.82 138.91C1169.15 142.832 1171.41 147.539 1172.58 153.029H1147.43C1146.94 152.147 1146.06 151.068 1144.78 149.794C1143.41 148.813 1141.79 147.784 1139.93 146.705C1135.32 144.548 1129.73 143.47 1123.16 143.47Z" fill="#34324C"/>
<path d="M848.462 209.211C856.405 209.211 862.583 206.76 866.996 201.857C871.409 196.955 873.615 190.484 873.615 182.444V125.38H898.327V184.062C898.327 198.965 893.669 210.682 884.353 219.212C875.135 227.742 863.171 232.007 848.462 232.007C833.066 232.007 820.857 227.742 811.835 219.212C802.813 210.682 798.302 198.965 798.302 184.062V125.38H823.309V182.444C823.309 190.582 825.466 197.102 829.781 202.005C834.194 206.809 840.421 209.211 848.462 209.211Z" fill="#34324C"/>
<path d="M590.255 125.38V230.095H569.956L513.031 157.883V229.801H488.613V125.38H517.002L566.426 189.356V125.38H590.255Z" fill="#34324C"/>
<path d="M613.097 143.764V120.232H638.103V143.764H613.097ZM613.685 229.801V153.618H637.661V229.801H613.685Z" fill="#34324C"/>
<path d="M285.255 168.031V217.006C279.763 221.908 272.752 225.585 264.22 228.036C255.689 230.488 247.157 231.713 238.626 231.713C221.269 231.713 207.197 226.811 196.41 217.006C185.623 207.103 180.229 193.768 180.229 177.002C180.229 161.02 185.328 148.078 195.527 138.175C205.726 128.174 218.719 123.174 234.507 123.174C243.627 123.174 252.207 124.889 260.249 128.321C268.388 131.655 274.517 136.851 278.635 143.911C280.793 147.539 282.215 150.774 282.901 153.618H256.571C254.414 151.461 252.404 149.892 250.54 148.911C248.775 147.833 246.275 146.803 243.039 145.823C240.587 145.234 237.743 144.94 234.507 144.94C225.681 144.94 218.621 148.078 213.325 154.353C208.128 160.53 205.529 168.08 205.529 177.002C205.529 187.297 208.618 195.435 214.796 201.416C220.974 207.299 229.114 210.241 239.214 210.241C249.02 210.241 256.375 208.721 261.278 205.681V188.474H228.329V168.031H285.255Z" fill="#34324C"/>
<path d="M342.609 151.706C355.063 151.706 364.967 155.431 372.322 162.883C379.677 170.237 383.354 179.993 383.354 192.151V196.269H325.399C325.987 201.269 327.998 205.338 331.43 208.476C334.862 211.515 339.128 213.035 344.227 213.035C348.64 213.035 352.121 212.251 354.671 210.682C356.436 209.897 357.858 208.721 358.937 207.152H382.619C381.932 212.153 379.53 216.614 375.411 220.536C371.292 224.36 366.536 227.203 361.143 229.066C356.436 230.831 350.797 231.713 344.227 231.713C331.871 231.713 321.722 228.085 313.778 220.83C305.835 213.476 301.864 203.769 301.864 191.709C301.864 179.551 305.639 169.845 313.19 162.589C320.839 155.333 330.645 151.706 342.609 151.706ZM342.609 169.06C338.392 169.06 334.764 170.188 331.724 172.443C328.782 174.6 326.821 177.689 325.84 181.708H359.378C357.122 173.276 351.533 169.06 342.609 169.06Z" fill="#34324C"/>
<path d="M193.854 287.895V300.139C192.481 301.365 190.728 302.284 188.595 302.897C186.462 303.509 184.329 303.816 182.197 303.816C177.857 303.816 174.339 302.59 171.643 300.139C168.946 297.663 167.597 294.33 167.597 290.138C167.597 286.142 168.872 282.907 171.422 280.431C173.972 277.931 177.22 276.681 181.167 276.681C183.447 276.681 185.592 277.11 187.602 277.968C189.637 278.801 191.169 280.1 192.199 281.865C192.738 282.772 193.094 283.581 193.265 284.292H186.683C186.144 283.753 185.641 283.36 185.175 283.115C184.734 282.846 184.109 282.588 183.3 282.343C182.687 282.196 181.976 282.122 181.167 282.122C178.96 282.122 177.195 282.907 175.871 284.476C174.572 286.02 173.922 287.907 173.922 290.138C173.922 292.712 174.695 294.746 176.239 296.241C177.784 297.712 179.819 298.448 182.344 298.448C184.795 298.448 186.634 298.068 187.86 297.308V293.006H179.622V287.895H193.854Z" fill="#34324C"/>
<path d="M208.192 283.814C211.306 283.814 213.782 284.745 215.621 286.608C217.459 288.447 218.379 290.886 218.379 293.925V294.955H203.89C204.037 296.205 204.54 297.222 205.398 298.006C206.256 298.766 207.322 299.146 208.597 299.146C209.7 299.146 210.57 298.95 211.208 298.558C211.649 298.362 212.005 298.068 212.274 297.675H218.195C218.023 298.926 217.423 300.041 216.393 301.021C215.363 301.977 214.174 302.688 212.826 303.154C211.649 303.595 210.239 303.816 208.597 303.816C205.508 303.816 202.971 302.909 200.985 301.095C198.999 299.256 198.006 296.83 198.006 293.815C198.006 290.775 198.95 288.349 200.838 286.535C202.75 284.721 205.201 283.814 208.192 283.814ZM208.192 288.152C207.138 288.152 206.231 288.434 205.471 288.998C204.736 289.537 204.245 290.31 204 291.315H212.385C211.821 289.207 210.423 288.152 208.192 288.152Z" fill="#34324C"/>
<path d="M228.409 294.035V303.338H222.452V284.292H228.409V287.27C229.414 285.26 231.339 284.255 234.183 284.255H238.265V290.138H233.043C231.523 290.138 230.371 290.432 229.586 291.02C228.802 291.584 228.409 292.589 228.409 294.035Z" fill="#34324C"/>
<path d="M247.945 293.3V303.338H241.988V284.292H247.945V287.16C248.607 286.13 249.478 285.334 250.556 284.77C251.635 284.182 252.787 283.887 254.013 283.887C257.2 283.887 259.443 285.211 260.743 287.858C262.189 285.211 264.493 283.887 267.656 283.887C269.911 283.887 271.799 284.647 273.319 286.167C274.692 287.711 275.378 289.684 275.378 292.087V303.338H269.384V293.3C269.384 292.074 269.053 291.082 268.391 290.322C267.73 289.562 266.786 289.182 265.56 289.182C264.359 289.182 263.402 289.562 262.692 290.322C262.005 291.082 261.662 292.074 261.662 293.3V303.338H255.668V293.3C255.668 292.074 255.337 291.082 254.675 290.322C254.013 289.562 253.069 289.182 251.843 289.182C250.642 289.182 249.686 289.562 248.975 290.322C248.289 291.082 247.945 292.074 247.945 293.3Z" fill="#34324C"/>
<path d="M294.202 303.338V300.543C293.687 301.548 292.841 302.333 291.665 302.897C290.488 303.46 289.287 303.742 288.061 303.742C285.389 303.742 283.28 302.774 281.736 300.838C280.191 298.877 279.419 296.536 279.419 293.815C279.419 291.045 280.203 288.704 281.772 286.792C283.341 284.88 285.45 283.924 288.098 283.924C290.427 283.924 292.265 284.684 293.614 286.204C293.883 286.547 294.055 286.792 294.128 286.939V284.292H300.086V303.338H294.202ZM294.202 293.815C294.202 292.442 293.81 291.302 293.025 290.395C292.265 289.464 291.211 288.998 289.863 288.998C288.907 288.998 288.048 289.268 287.288 289.807C286.553 290.322 286.05 291.02 285.781 291.903C285.56 292.491 285.45 293.128 285.45 293.815C285.45 294.501 285.56 295.138 285.781 295.727C286.05 296.609 286.565 297.32 287.325 297.859C288.085 298.374 288.931 298.631 289.863 298.631C291.187 298.631 292.241 298.166 293.025 297.234C293.81 296.303 294.202 295.163 294.202 293.815Z" fill="#34324C"/>
<path d="M311.33 293.337V303.338H305.372V284.292H311.33V287.233C311.893 286.204 312.751 285.395 313.904 284.807C315.056 284.194 316.245 283.887 317.471 283.887C319.873 283.887 321.761 284.672 323.134 286.241C324.531 287.785 325.23 289.746 325.23 292.123V303.338H319.236V293.337C319.236 292.087 318.893 291.082 318.206 290.322C317.52 289.562 316.551 289.182 315.301 289.182C314.075 289.182 313.107 289.574 312.396 290.359C311.685 291.118 311.33 292.111 311.33 293.337Z" fill="#34324C"/>
<path d="M330.185 281.828V275.945H336.436V281.828H330.185ZM330.332 303.338V284.292H336.326V303.338H330.332Z" fill="#34324C"/>
<path d="M351.315 303.779C348.324 303.779 345.921 302.982 344.107 301.389C342.317 299.796 341.423 297.553 341.423 294.66V284.292H347.417V294.219C347.417 295.469 347.735 296.462 348.373 297.197C349.035 297.933 349.979 298.301 351.204 298.301C352.43 298.301 353.374 297.933 354.036 297.197C354.698 296.462 355.029 295.469 355.029 294.219V284.292H361.023V294.66C361.023 297.602 360.128 299.857 358.338 301.426C356.573 302.995 354.232 303.779 351.315 303.779Z" fill="#34324C"/>
<path d="M372.056 293.3V303.338H366.099V284.292H372.056V287.16C372.718 286.13 373.589 285.334 374.667 284.77C375.746 284.182 376.898 283.887 378.124 283.887C381.311 283.887 383.554 285.211 384.854 287.858C386.3 285.211 388.605 283.887 391.767 283.887C394.023 283.887 395.91 284.647 397.43 286.167C398.803 287.711 399.49 289.684 399.49 292.087V303.338H393.495V293.3C393.495 292.074 393.164 291.082 392.503 290.322C391.841 289.562 390.897 289.182 389.671 289.182C388.47 289.182 387.514 289.562 386.803 290.322C386.116 291.082 385.773 292.074 385.773 293.3V303.338H379.779V293.3C379.779 292.074 379.448 291.082 378.786 290.322C378.124 289.562 377.18 289.182 375.954 289.182C374.753 289.182 373.797 289.562 373.086 290.322C372.4 291.082 372.056 292.074 372.056 293.3Z" fill="#34324C"/>
<path d="M529.818 277.232V303.411H524.743L510.512 285.358V303.338H504.407V277.232H511.505L523.861 293.226V277.232H529.818Z" fill="#34324C"/>
<path d="M535.528 281.828V275.945H541.78V281.828H535.528ZM535.675 303.338V284.292H541.669V303.338H535.675Z" fill="#34324C"/>
<path d="M565.337 290.947H559.527C559.502 290.922 559.453 290.849 559.379 290.726C559.306 290.604 559.245 290.506 559.196 290.432C558.999 290.211 558.779 289.991 558.534 289.77C558.264 289.599 557.908 289.415 557.467 289.219C557.05 289.072 556.548 288.998 555.959 288.998C554.66 288.998 553.655 289.464 552.944 290.395C552.233 291.327 551.878 292.467 551.878 293.815C551.878 295.138 552.245 296.278 552.981 297.234C553.716 298.19 554.721 298.668 555.996 298.668C556.683 298.668 557.406 298.484 558.166 298.117C558.926 297.749 559.404 297.283 559.6 296.719H565.337C565.263 298.092 564.724 299.367 563.719 300.543C562.714 301.695 561.525 302.541 560.152 303.08C558.95 303.571 557.516 303.816 555.849 303.816C552.932 303.816 550.541 302.872 548.678 300.985C546.815 299.073 545.883 296.683 545.883 293.815C545.883 290.873 546.815 288.471 548.678 286.608C550.541 284.745 552.907 283.814 555.776 283.814C558.154 283.814 560.274 284.451 562.137 285.726C564.025 286.976 565.092 288.716 565.337 290.947Z" fill="#34324C"/>
<path d="M583.151 303.338L575.281 294.844V303.338H569.324V276.276H575.281V291.756L582.893 284.292H590.395L581.275 293.079L590.873 303.338H583.151Z" fill="#34324C"/>
<path d="M601.642 283.814C604.755 283.814 607.231 284.745 609.07 286.608C610.909 288.447 611.828 290.886 611.828 293.925V294.955H597.339C597.486 296.205 597.989 297.222 598.847 298.006C599.705 298.766 600.772 299.146 602.046 299.146C603.15 299.146 604.02 298.95 604.657 298.558C605.099 298.362 605.454 298.068 605.724 297.675H611.644C611.473 298.926 610.872 300.041 609.842 301.021C608.813 301.977 607.624 302.688 606.275 303.154C605.099 303.595 603.689 303.816 602.046 303.816C598.957 303.816 596.42 302.909 594.434 301.095C592.448 299.256 591.456 296.83 591.456 293.815C591.456 290.775 592.399 288.349 594.287 286.535C596.199 284.721 598.651 283.814 601.642 283.814ZM601.642 288.152C600.588 288.152 599.681 288.434 598.921 288.998C598.185 289.537 597.695 290.31 597.45 291.315H605.834C605.27 289.207 603.873 288.152 601.642 288.152Z" fill="#34324C"/>
<path d="M615.975 303.338V276.276H621.969V303.338H615.975Z" fill="#34324C"/>
<path d="M781.111 298.19C783.097 298.19 784.641 297.577 785.744 296.352C786.847 295.126 787.399 293.508 787.399 291.498V277.232H793.577V291.903C793.577 295.629 792.413 298.558 790.084 300.69C787.779 302.823 784.788 303.889 781.111 303.889C777.262 303.889 774.21 302.823 771.954 300.69C769.699 298.558 768.571 295.629 768.571 291.903V277.232H774.823V291.498C774.823 293.533 775.362 295.163 776.441 296.389C777.544 297.59 779.101 298.19 781.111 298.19Z" fill="#34324C"/>
<path d="M805.188 294.035V303.338H799.231V284.292H805.188V287.27C806.193 285.26 808.118 284.255 810.962 284.255H815.044V290.138H809.822C808.302 290.138 807.15 290.432 806.365 291.02C805.581 291.584 805.188 292.589 805.188 294.035Z" fill="#34324C"/>
<path d="M832.484 303.338V300.543C831.969 301.548 831.123 302.333 829.946 302.897C828.769 303.46 827.568 303.742 826.342 303.742C823.67 303.742 821.562 302.774 820.017 300.838C818.473 298.877 817.701 296.536 817.701 293.815C817.701 291.045 818.485 288.704 820.054 286.792C821.623 284.88 823.731 283.924 826.379 283.924C828.708 283.924 830.547 284.684 831.895 286.204C832.165 286.547 832.337 286.792 832.41 286.939V284.292H838.367V303.338H832.484ZM832.484 293.815C832.484 292.442 832.091 291.302 831.307 290.395C830.547 289.464 829.493 288.998 828.144 288.998C827.188 288.998 826.33 289.268 825.57 289.807C824.835 290.322 824.332 291.02 824.062 291.903C823.842 292.491 823.732 293.128 823.732 293.815C823.732 294.501 823.842 295.138 824.062 295.727C824.332 296.609 824.847 297.32 825.607 297.859C826.367 298.374 827.213 298.631 828.144 298.631C829.468 298.631 830.522 298.166 831.307 297.234C832.091 296.303 832.484 295.163 832.484 293.815Z" fill="#34324C"/>
<path d="M849.611 293.337V303.338H843.654V284.292H849.611V287.233C850.175 286.204 851.033 285.395 852.185 284.807C853.338 284.194 854.527 283.887 855.753 283.887C858.155 283.887 860.043 284.672 861.416 286.241C862.813 287.785 863.512 289.746 863.512 292.123V303.338H857.518V293.337C857.518 292.087 857.174 291.082 856.488 290.322C855.801 289.562 854.833 289.182 853.583 289.182C852.357 289.182 851.389 289.574 850.678 290.359C849.967 291.118 849.611 292.111 849.611 293.337Z" fill="#34324C"/>
<path d="M868.466 281.828V275.945H874.718V281.828H868.466ZM868.613 303.338V284.292H874.608V303.338H868.613Z" fill="#34324C"/>
<path d="M889.596 303.779C886.605 303.779 884.203 302.982 882.389 301.389C880.599 299.796 879.704 297.553 879.704 294.66V284.292H885.698V294.219C885.698 295.469 886.017 296.462 886.654 297.197C887.316 297.933 888.26 298.301 889.486 298.301C890.712 298.301 891.656 297.933 892.318 297.197C892.979 296.462 893.31 295.469 893.31 294.219V284.292H899.305V294.66C899.305 297.602 898.41 299.857 896.62 301.426C894.855 302.995 892.514 303.779 889.596 303.779Z" fill="#34324C"/>
<path d="M910.338 293.3V303.338H904.381V284.292H910.338V287.16C911 286.13 911.87 285.334 912.949 284.77C914.028 284.182 915.18 283.887 916.406 283.887C919.593 283.887 921.836 285.211 923.135 287.858C924.582 285.211 926.886 283.887 930.049 283.887C932.304 283.887 934.192 284.647 935.712 286.167C937.085 287.711 937.771 289.684 937.771 292.087V303.338H931.777V293.3C931.777 292.074 931.446 291.082 930.784 290.322C930.122 289.562 929.178 289.182 927.953 289.182C926.751 289.182 925.795 289.562 925.084 290.322C924.398 291.082 924.055 292.074 924.055 293.3V303.338H918.061V293.3C918.061 292.074 917.73 291.082 917.068 290.322C916.406 289.562 915.462 289.182 914.236 289.182C913.035 289.182 912.079 289.562 911.368 290.322C910.681 291.082 910.338 292.074 910.338 293.3Z" fill="#34324C"/>
<path d="M1079.62 281.755C1076.58 281.755 1075.06 282.576 1075.06 284.218C1075.06 285.64 1076.24 286.473 1078.59 286.719C1079.55 286.817 1080.21 286.878 1080.58 286.902C1081.95 286.976 1083.14 287.086 1084.14 287.233C1085.15 287.38 1086.22 287.638 1087.34 288.005C1088.47 288.373 1089.39 288.851 1090.1 289.439C1090.81 290.028 1091.4 290.824 1091.87 291.829C1092.36 292.834 1092.6 294.023 1092.6 295.396C1092.6 296.965 1092.26 298.325 1091.57 299.477C1090.89 300.629 1089.95 301.512 1088.78 302.124C1087.63 302.713 1086.41 303.142 1085.14 303.411C1083.86 303.681 1082.49 303.816 1081.02 303.816C1078.96 303.816 1077.07 303.571 1075.36 303.08C1073.64 302.59 1072.08 301.708 1070.69 300.433C1069.31 299.158 1068.39 297.553 1067.93 295.616H1074.51C1074.68 296.009 1074.91 296.364 1075.21 296.683C1075.5 297.075 1075.92 297.418 1076.46 297.712C1077.59 298.423 1079.11 298.779 1081.02 298.779C1081.58 298.779 1082.12 298.742 1082.64 298.668C1083.15 298.595 1083.69 298.46 1084.25 298.264C1084.82 298.068 1085.27 297.761 1085.62 297.345C1085.96 296.928 1086.13 296.425 1086.13 295.837C1086.13 294.832 1085.79 294.133 1085.1 293.741C1084.44 293.349 1083.52 293.092 1082.34 292.969C1081.58 292.871 1080.88 292.798 1080.25 292.749C1072.52 292.283 1068.66 289.525 1068.66 284.476C1068.66 283.324 1068.88 282.294 1069.32 281.387C1069.79 280.48 1070.38 279.745 1071.09 279.181C1071.83 278.617 1072.68 278.152 1073.66 277.784C1074.64 277.392 1075.62 277.122 1076.61 276.975C1077.59 276.828 1078.59 276.754 1079.62 276.754C1081.02 276.754 1082.34 276.877 1083.59 277.122C1084.84 277.367 1086.06 277.759 1087.23 278.299C1088.43 278.838 1089.45 279.61 1090.29 280.615C1091.12 281.595 1091.68 282.772 1091.98 284.145H1085.69C1085.57 283.924 1085.35 283.655 1085.03 283.336C1084.68 283.091 1084.28 282.833 1083.81 282.564C1082.66 282.024 1081.26 281.755 1079.62 281.755Z" fill="#34324C"/>
<path d="M1106.79 303.779C1103.8 303.779 1101.4 302.982 1099.58 301.389C1097.79 299.796 1096.9 297.553 1096.9 294.66V284.292H1102.89V294.219C1102.89 295.469 1103.21 296.462 1103.85 297.197C1104.51 297.933 1105.45 298.301 1106.68 298.301C1107.91 298.301 1108.85 297.933 1109.51 297.197C1110.17 296.462 1110.5 295.469 1110.5 294.219V284.292H1116.5V294.66C1116.5 297.602 1115.6 299.857 1113.81 301.426C1112.05 302.995 1109.71 303.779 1106.79 303.779Z" fill="#34324C"/>
<path d="M1121.65 303.338V276.276H1127.64V303.338H1121.65Z" fill="#34324C"/>
<path d="M1148.48 289.182H1142.19V303.338H1136.19V289.182H1131.27V284.292H1136.19V281.718C1136.19 279.904 1136.71 278.544 1137.74 277.637C1138.79 276.73 1140.25 276.276 1142.11 276.276H1150.79V280.762H1144.62C1143.78 280.762 1143.17 280.946 1142.78 281.314C1142.38 281.681 1142.19 282.282 1142.19 283.115V284.292H1148.48V289.182Z" fill="#34324C"/>
<path d="M1161.7 303.779C1158.71 303.779 1156.31 302.982 1154.49 301.389C1152.7 299.796 1151.81 297.553 1151.81 294.66V284.292H1157.8V294.219C1157.8 295.469 1158.12 296.462 1158.76 297.197C1159.42 297.933 1160.36 298.301 1161.59 298.301C1162.82 298.301 1163.76 297.933 1164.42 297.197C1165.08 296.462 1165.41 295.469 1165.41 294.219V284.292H1171.41V294.66C1171.41 297.602 1170.51 299.857 1168.72 301.426C1166.96 302.995 1164.62 303.779 1161.7 303.779Z" fill="#34324C"/>
<path d="M1182.44 294.035V303.338H1176.48V284.292H1182.44V287.27C1183.45 285.26 1185.37 284.255 1188.22 284.255H1192.3V290.138H1187.08C1185.56 290.138 1184.4 290.432 1183.62 291.02C1182.83 291.584 1182.44 292.589 1182.44 294.035Z" fill="#34324C"/>
<path d="M1283.13 188.264L1315.19 175.112L1283.13 160.232V149L1329.69 172.232V178.952L1283.13 199.496V188.264Z" fill="#34324C"/>
<path d="M1325.13 188.264L1357.19 175.112L1325.13 160.232V149L1371.69 172.232V178.952L1325.13 199.496V188.264Z" fill="#34324C"/>
<path d="M119.872 188.264L87.808 175.112L119.872 160.232V149L73.312 172.232V178.952L119.872 199.496V188.264Z" fill="#34324C"/>
<path d="M78.872 188.264L46.808 175.112L78.872 160.232V149L32.312 172.232V178.952L78.872 199.496V188.264Z" fill="#34324C"/>
</svg>
