<svg width="964" height="711" viewBox="0 0 964 711" fill="none" xmlns="http://www.w3.org/2000/svg">
<path d="M360 0L571.31 122V366L360 488L148.69 366V122L360 0Z" fill="#D9D9D9"/>
<path d="M118 402L220.191 461V579L118 638L15.809 579V461L118 402Z" fill="#D9D9D9"/>
<path d="M877.5 467L952.411 510.25V596.75L877.5 640L802.589 596.75V510.25L877.5 467Z" fill="#D9D9D9"/>
<path d="M654 34L696.435 58.5V107.5L654 132L611.565 107.5V58.5L654 34Z" fill="#D9D9D9"/>
<path d="M530 223L741.31 345V589L530 711L318.69 589V345L530 223Z" fill="#E7E7E7"/>
</svg>
