<svg width="364" height="1030" viewBox="0 0 364 1030" fill="none" xmlns="http://www.w3.org/2000/svg">
<path d="M269.521 832.772L346.521 887.357L337.749 981.333L251.977 1020.73L174.977 966.14L183.748 872.163L269.521 832.772Z" fill="#B5BECD"/>
<path d="M209.642 548.197L311.537 644.204L279.34 780.452L145.248 820.692L43.3525 724.685L75.5496 588.437L209.642 548.197Z" fill="#B5BECD"/>
<path d="M-46.3996 401.8L14.0633 372.276L69.8633 409.876L65.2005 477.001L4.73755 506.525L-51.0625 468.925L-46.3996 401.8Z" fill="#B5BECD"/>
<path d="M31.1217 848.957L53.8299 837.869L74.7869 851.99L73.0356 877.2L50.3274 888.289L29.3704 874.167L31.1217 848.957Z" fill="#B5BECD"/>
<path d="M31.1217 20.9571L53.8299 9.86867L74.7869 23.9903L73.0356 49.2005L50.3274 60.2889L29.3704 46.1672L31.1217 20.9571Z" fill="#B5BECD"/>
</svg>
