<svg width="699" height="840" viewBox="0 0 699 840" fill="none" xmlns="http://www.w3.org/2000/svg">
<path d="M244.642 154.655L389 71.3094L533.358 154.655V321.345L389 404.691L244.642 321.345V154.655Z" stroke="black" stroke-width="4"/>
<path d="M93.6417 416.655L238 333.309L382.358 416.655V583.345L238 666.691L93.6417 583.345V416.655Z" stroke="black" stroke-width="4"/>
<path d="M490.139 671.655L586 616.309L681.861 671.655V782.345L586 837.691L490.139 782.345V671.655Z" stroke="black" stroke-width="4"/>
<line x1="258" y1="157" x2="258" y2="315" stroke="black" stroke-width="4"/>
<line x1="511.996" y1="316.734" x2="389.996" y2="386.79" stroke="black" stroke-width="4"/>
<line x1="624.027" y1="99.7163" x2="542.027" y2="148.772" stroke="black" stroke-width="4"/>
<line x1="83.0268" y1="591.716" x2="1.02675" y2="640.772" stroke="black" stroke-width="4"/>
<line x1="484.027" y1="787.716" x2="402.027" y2="836.772" stroke="black" stroke-width="4"/>
<line x1="481.795" y1="662.596" x2="387.795" y2="591.596" stroke="black" stroke-width="4"/>
<line x1="540.205" y1="326.404" x2="634.205" y2="397.404" stroke="black" stroke-width="4"/>
<line x1="391" y1="-1.40696e-07" x2="391" y2="64" stroke="black" stroke-width="4"/>
<line x1="132.962" y1="102.247" x2="230.269" y2="155.655" stroke="black" stroke-width="4"/>
<line x1="141.962" y1="86.2467" x2="239.269" y2="139.655" stroke="black" stroke-width="4"/>
<line x1="239.039" y1="348.291" x2="369.039" y2="427.291" stroke="black" stroke-width="4"/>
</svg>
