<svg width="435" height="356" viewBox="0 0 435 356" fill="none" xmlns="http://www.w3.org/2000/svg">
<circle cx="210.078" cy="246.701" r="25.2891" transform="rotate(-174.779 210.078 246.701)" stroke="#34324C" stroke-width="3"/>
<path d="M220.292 155.566C221.583 141.43 233.922 131.038 247.812 132.307C261.701 133.577 271.952 146.033 270.66 160.169C269.368 174.305 257.029 184.696 243.14 183.427C229.251 182.158 219 169.702 220.292 155.566Z" stroke="#34324C" stroke-width="3"/>
<line x1="120.258" y1="112.51" x2="119.058" y2="71.8532" stroke="#34324C" stroke-width="3"/>
<line x1="219.969" y1="218.225" x2="228.956" y2="187.1" stroke="#34324C" stroke-width="3"/>
<line x1="178.109" y1="306.862" x2="160.945" y2="293.006" stroke="#34324C" stroke-width="3"/>
<line x1="201.834" y1="295.401" x2="204.946" y2="274.797" stroke="#34324C" stroke-width="3"/>
<line x1="240.624" y1="254.571" x2="267.983" y2="264.444" stroke="#34324C" stroke-width="3"/>
<line x1="288.132" y1="216.941" x2="292.332" y2="238.213" stroke="#34324C" stroke-width="3"/>
<line x1="370.807" y1="289.076" x2="337.133" y2="281.084" stroke="#34324C" stroke-width="3"/>
<line x1="67.9929" y1="205.942" x2="98.2463" y2="184.133" stroke="#34324C" stroke-width="3"/>
<line x1="260.023" y1="130.633" x2="271.776" y2="109.59" stroke="#34324C" stroke-width="3"/>
<line x1="163.051" y1="127.419" x2="195.353" y2="102.699" stroke="#34324C" stroke-width="3"/>
<line x1="56.0913" y1="70.7142" x2="86.6724" y2="58.7642" stroke="#34324C" stroke-width="3"/>
<line x1="1.34924" y1="63.1534" x2="26.2704" y2="72.8031" stroke="#34324C" stroke-width="3"/>
<line x1="229.954" y1="83.9876" x2="254.436" y2="84.9961" stroke="#34324C" stroke-width="3"/>
<line x1="331.979" y1="117.037" x2="307.615" y2="101.295" stroke="#34324C" stroke-width="3"/>
<path d="M28.6709 74.4027C29.301 67.5075 35.5686 62.3973 42.7227 63.0511C49.8768 63.7048 55.1145 69.8664 54.4844 76.7615C53.8543 83.6567 47.5866 88.7669 40.4325 88.1131C33.2784 87.4593 28.0408 81.2978 28.6709 74.4027Z" stroke="#34324C" stroke-width="2"/>
<path d="M12.2225 226.727C13.7464 210.05 27.8275 197.833 43.5362 199.268C59.2448 200.704 70.8782 215.271 69.3543 231.947C67.8304 248.623 53.7494 260.841 38.0407 259.406C22.332 257.97 10.6986 243.403 12.2225 226.727Z" stroke="#34324C" stroke-width="3"/>
<path d="M372.501 296.105C374.044 279.223 388.308 266.851 404.225 268.305C420.142 269.76 431.927 284.512 430.384 301.395C428.842 318.278 414.578 330.649 398.661 329.195C382.744 327.74 370.958 312.988 372.501 296.105Z" stroke="#34324C" stroke-width="3"/>
<circle cx="358.524" cy="131.446" r="25.2891" transform="rotate(-174.779 358.524 131.446)" stroke="#34324C" stroke-width="3"/>
<path d="M-4.73607 32.3663L-3.23836 62.9016L-27.8807 80.996L-53.8576 68.6326L-55.3553 38.0973L-30.7129 20.003L-4.73607 32.3663Z" stroke="#3C3B54" stroke-width="3"/>
<path d="M148.314 28.2451L145.767 56.1157L120.821 68.802L98.5156 53.6813L101.062 25.8108L126.009 13.1245L148.314 28.2451Z" stroke="#3C3B54" stroke-width="3"/>
<path d="M313.301 77.3294L300.691 102.314L272.829 104.947L257.64 82.688L270.249 57.7029L298.112 55.0704L313.301 77.3294Z" stroke="#3C3B54" stroke-width="3"/>
<path d="M322.186 251.135L330.728 280.138L310.535 302.641L281.885 296.16L273.344 267.157L293.537 244.655L322.186 251.135Z" stroke="#3C3B54" stroke-width="3"/>
<path d="M159.132 274.434L157.657 290.576L143.208 297.924L130.329 289.193L131.804 273.051L146.252 265.704L159.132 274.434Z" stroke="#3C3B54" stroke-width="3"/>
<path d="M221.792 106.487L205.72 108.595L195.377 96.1152L201.064 81.6319L217.135 79.5232L227.479 92.0034L221.792 106.487Z" stroke="#3C3B54" stroke-width="3"/>
<path d="M285.848 210.608L272.841 205.926L269.877 192.422L279.836 183.676L292.843 188.359L295.807 201.862L285.848 210.608Z" stroke="#3C3B54" stroke-width="3"/>
<path d="M220.472 311.499L218.398 334.19L198.088 344.519L179.946 332.22L182.019 309.529L202.329 299.201L220.472 311.499Z" stroke="#3C3B54" stroke-width="3"/>
<path d="M134.063 195.92L97.8504 181.822L92.1154 143.388L122.603 119.043L158.815 133.141L164.55 171.575L134.063 195.92Z" stroke="#3C3B54" stroke-width="3"/>
</svg>
