<svg width="1311" height="707" viewBox="0 0 1311 707" fill="none" xmlns="http://www.w3.org/2000/svg">
<rect x="2" y="2" width="272" height="343" stroke="white" stroke-width="4"/>
<rect x="638" y="2" width="272" height="343" stroke="white" stroke-width="4"/>
<rect x="956" y="2" width="272" height="343" stroke="white" stroke-width="4"/>
<path d="M132.774 133.254C119.713 133.254 113.182 136.783 113.182 143.84C113.182 149.949 118.238 153.531 128.35 154.584C132.458 155.005 135.302 155.269 136.882 155.374C142.781 155.69 147.889 156.164 152.208 156.796C156.527 157.428 161.109 158.534 165.954 160.114C170.799 161.694 174.749 163.748 177.804 166.276C180.859 168.804 183.387 172.227 185.388 176.546C187.495 180.865 188.548 185.973 188.548 191.872C188.548 198.613 187.073 204.459 184.124 209.41C181.175 214.361 177.172 218.153 172.116 220.786C167.165 223.314 161.951 225.157 156.474 226.316C150.997 227.475 145.098 228.054 138.778 228.054C129.93 228.054 121.819 227.001 114.446 224.894C107.073 222.787 100.384 218.995 94.38 213.518C88.4813 208.041 84.5313 201.141 82.53 192.82H110.812C111.549 194.505 112.55 196.033 113.814 197.402C115.078 199.087 116.869 200.562 119.186 201.826C124.031 204.881 130.562 206.408 138.778 206.408C141.201 206.408 143.518 206.25 145.73 205.934C147.942 205.618 150.259 205.039 152.682 204.196C155.105 203.353 157.053 202.037 158.528 200.246C160.003 198.455 160.74 196.296 160.74 193.768C160.74 189.449 159.265 186.447 156.316 184.762C153.472 183.077 149.522 181.971 144.466 181.444C141.201 181.023 138.199 180.707 135.46 180.496C102.28 178.495 85.69 166.645 85.69 144.946C85.69 139.995 86.638 135.571 88.534 131.674C90.5353 127.777 93.0633 124.617 96.118 122.194C99.278 119.771 102.965 117.77 107.178 116.19C111.391 114.505 115.605 113.346 119.818 112.714C124.031 112.082 128.35 111.766 132.774 111.766C138.778 111.766 144.466 112.293 149.838 113.346C155.21 114.399 160.424 116.085 165.48 118.402C170.641 120.719 175.013 124.037 178.594 128.356C182.175 132.569 184.598 137.625 185.862 143.524H158.844C158.317 142.576 157.369 141.417 156 140.048C154.525 138.995 152.787 137.889 150.786 136.73C145.835 134.413 139.831 133.254 132.774 133.254Z" fill="white"/>
<path d="M675.588 229V116.82H741.316C753.535 116.82 763.225 119.717 770.388 125.51C777.656 131.303 781.29 140.151 781.29 152.054C781.29 159.638 779.499 166.116 775.918 171.488C772.337 176.86 767.017 180.81 759.96 183.338L785.24 229H756.958L733.258 186.34H702.448V229H675.588ZM738.472 139.888H702.448V163.746H738.472C748.689 163.746 753.798 159.849 753.798 152.054C753.798 147.525 752.429 144.365 749.69 142.574C747.057 140.783 743.317 139.888 738.472 139.888ZM839.543 145.102C852.92 145.102 863.559 149.105 871.459 157.11C879.359 165.01 883.309 175.491 883.309 188.552V192.976H821.057C821.689 198.348 823.848 202.719 827.535 206.09C831.221 209.355 835.803 210.988 841.281 210.988C846.021 210.988 849.76 210.145 852.499 208.46C854.395 207.617 855.922 206.353 857.081 204.668H882.519C881.781 210.04 879.201 214.833 874.777 219.046C870.353 223.154 865.244 226.209 859.451 228.21C854.395 230.106 848.338 231.054 841.281 231.054C828.009 231.054 817.107 227.157 808.575 219.362C800.043 211.462 795.777 201.034 795.777 188.078C795.777 175.017 799.832 164.589 807.943 156.794C816.159 148.999 826.692 145.102 839.543 145.102ZM839.543 163.746C835.013 163.746 831.116 164.957 827.851 167.38C824.691 169.697 822.584 173.015 821.531 177.334H857.555C855.132 168.275 849.128 163.746 839.543 163.746Z" fill="white"/>
<path d="M1100.77 116.82V229.316H1078.96L1017.82 151.738V229H991.588V116.82H1022.08L1075.17 185.55V116.82H1100.77ZM1164.8 145.102C1178.18 145.102 1188.82 149.105 1196.72 157.11C1204.62 165.01 1208.57 175.491 1208.57 188.552V192.976H1146.31C1146.95 198.348 1149.11 202.719 1152.79 206.09C1156.48 209.355 1161.06 210.988 1166.54 210.988C1171.28 210.988 1175.02 210.145 1177.76 208.46C1179.65 207.617 1181.18 206.353 1182.34 204.668H1207.78C1207.04 210.04 1204.46 214.833 1200.03 219.046C1195.61 223.154 1190.5 226.209 1184.71 228.21C1179.65 230.106 1173.6 231.054 1166.54 231.054C1153.27 231.054 1142.36 227.157 1133.83 219.362C1125.3 211.462 1121.03 201.034 1121.03 188.078C1121.03 175.017 1125.09 164.589 1133.2 156.794C1141.42 148.999 1151.95 145.102 1164.8 145.102ZM1164.8 163.746C1160.27 163.746 1156.37 164.957 1153.11 167.38C1149.95 169.697 1147.84 173.015 1146.79 177.334H1182.81C1180.39 168.275 1174.39 163.746 1164.8 163.746Z" fill="white"/>
<path d="M31.12 16.48V45H24.48V23.92L17.56 27.8V21.6L26.16 16.48H31.12ZM59.4272 35.16C59.4272 38.36 58.3472 40.88 56.1872 42.72C54.0539 44.56 51.3872 45.48 48.1872 45.48C44.9339 45.48 42.2405 44.56 40.1072 42.72C38.0005 40.8533 36.9472 38.3467 36.9472 35.2C36.9472 33.0667 37.3339 31.2133 38.1072 29.64C38.8805 28.04 40.0672 26.2133 41.6672 24.16L47.5872 16.6H54.9472L46.8272 26.92C47.9739 26.2 49.2672 25.84 50.7072 25.84C53.4272 25.84 55.5605 26.72 57.1072 28.48C58.6539 30.24 59.4272 32.4667 59.4272 35.16ZM52.7872 35.16C52.7872 33.7733 52.3605 32.68 51.5072 31.88C50.6805 31.0533 49.5739 30.64 48.1872 30.64C46.8272 30.64 45.7205 31.0667 44.8672 31.92C44.0139 32.7467 43.5872 33.84 43.5872 35.2C43.5872 36.5333 44.0139 37.6133 44.8672 38.44C45.7205 39.24 46.8272 39.64 48.1872 39.64C49.5739 39.64 50.6805 39.24 51.5072 38.44C52.3605 37.6133 52.7872 36.52 52.7872 35.16ZM166.213 36.8C166.213 38.8 165.639 40.48 164.493 41.84C163.346 43.2 161.959 44.1467 160.333 44.68C158.733 45.2133 156.959 45.48 155.013 45.48C152.079 45.48 149.519 44.7067 147.333 43.16C145.146 41.6133 143.933 39.4533 143.693 36.68H150.413C150.546 37.6133 151.079 38.3467 152.013 38.88C152.973 39.3867 153.959 39.64 154.973 39.64C156.226 39.64 157.279 39.3867 158.133 38.88C158.986 38.3733 159.413 37.5467 159.413 36.4C159.413 34.3467 158.266 33.32 155.973 33.32H150.333V27.6H155.533C156.466 27.6 157.213 27.3733 157.773 26.92C158.333 26.4667 158.613 25.7867 158.613 24.88C158.613 23.84 158.239 23.08 157.493 22.6C156.746 22.0933 155.826 21.84 154.733 21.84C153.426 21.84 152.453 22.16 151.813 22.8C151.199 23.3067 150.853 23.9067 150.773 24.6H144.173C144.253 22.8133 144.826 21.2533 145.893 19.92C146.959 18.5867 148.359 17.5733 150.093 16.88C151.373 16.3733 152.919 16.12 154.733 16.12C156.173 16.12 157.493 16.2667 158.693 16.56C159.893 16.8267 160.999 17.2667 162.013 17.88C163.026 18.4667 163.826 19.3067 164.413 20.4C164.999 21.4933 165.293 22.7867 165.293 24.28C165.293 25.0533 165.186 25.76 164.973 26.4C164.279 28.1333 163.159 29.3067 161.613 29.92C162.173 30.08 162.719 30.32 163.253 30.64C165.226 32.0267 166.213 34.08 166.213 36.8ZM192.744 39.2V45H170.744V40.6L181.304 31.04C181.997 30.4 182.53 29.8667 182.904 29.44C183.304 29.0133 183.677 28.4533 184.024 27.76C184.397 27.04 184.584 26.3067 184.584 25.56C184.584 24.4667 184.25 23.6133 183.584 23C182.944 22.36 182.064 22.04 180.944 22.04C179.797 22.04 178.904 22.4 178.264 23.12C177.624 23.84 177.304 24.7867 177.304 25.96V27.48H170.824V25.76C170.824 22.8 171.77 20.4533 173.664 18.72C175.584 16.9867 178.01 16.12 180.944 16.12C184.01 16.12 186.504 16.92 188.424 18.52C190.344 20.12 191.304 22.3867 191.304 25.32C191.304 27.3467 190.77 29.1333 189.704 30.68C188.664 32.2 187.17 33.8 185.224 35.48L181.144 39.2H192.744ZM197.123 45V37.16H204.603V45H197.123ZM221.444 16.08C224.831 16.08 227.498 17.0267 229.444 18.92C231.391 20.7867 232.364 23.3733 232.364 26.68V34.92C232.364 38.28 231.364 40.8933 229.364 42.76C227.391 44.6 224.751 45.52 221.444 45.52C218.058 45.52 215.391 44.5867 213.444 42.72C211.498 40.8267 210.524 38.2267 210.524 34.92V26.68C210.524 23.32 211.511 20.72 213.484 18.88C215.484 17.0133 218.138 16.08 221.444 16.08ZM218.244 38.2C218.964 39.08 220.031 39.52 221.444 39.52C222.858 39.52 223.924 39.08 224.644 38.2C225.364 37.32 225.724 36.16 225.724 34.72V26.88C225.724 25.4133 225.364 24.2533 224.644 23.4C223.924 22.52 222.858 22.08 221.444 22.08C220.031 22.08 218.964 22.52 218.244 23.4C217.524 24.28 217.164 25.44 217.164 26.88V34.72C217.164 36.16 217.524 37.32 218.244 38.2ZM260.013 35.16C260.013 38.36 258.933 40.88 256.773 42.72C254.64 44.56 251.973 45.48 248.773 45.48C245.52 45.48 242.826 44.56 240.693 42.72C238.586 40.8533 237.533 38.3467 237.533 35.2C237.533 33.0667 237.92 31.2133 238.693 29.64C239.466 28.04 240.653 26.2133 242.253 24.16L248.173 16.6H255.533L247.413 26.92C248.56 26.2 249.853 25.84 251.293 25.84C254.013 25.84 256.146 26.72 257.693 28.48C259.24 30.24 260.013 32.4667 260.013 35.16ZM253.373 35.16C253.373 33.7733 252.946 32.68 252.093 31.88C251.266 31.0533 250.16 30.64 248.773 30.64C247.413 30.64 246.306 31.0667 245.453 31.92C244.6 32.7467 244.173 33.84 244.173 35.2C244.173 36.5333 244.6 37.6133 245.453 38.44C246.306 39.24 247.413 39.64 248.773 39.64C250.16 39.64 251.266 39.24 252.093 38.44C252.946 37.6133 253.373 36.52 253.373 35.16Z" fill="white"/>
<path d="M672.36 27.88L659.8 52H652.36L664.4 29.48H650.76V23.6H672.36V27.88ZM677.36 39.92V23.6H697.12V29.04H683.6V34.52C684.8 33.1067 686.627 32.4 689.08 32.4C691.853 32.4 694.067 33.32 695.72 35.16C697.373 36.9733 698.2 39.2667 698.2 42.04V42.2C698.2 45.4 697.147 47.92 695.04 49.76C692.96 51.5733 690.32 52.48 687.12 52.48C684.08 52.48 681.493 51.6667 679.36 50.04C677.227 48.4133 676.107 46.1467 676 43.24H682.72C682.8 43.88 683.08 44.48 683.56 45.04C684.04 45.6 684.587 46 685.2 46.24C685.733 46.48 686.373 46.6 687.12 46.6C688.4 46.6 689.453 46.2 690.28 45.4C691.107 44.6 691.52 43.56 691.52 42.28V42.16C691.52 40.8 691.12 39.7467 690.32 39C689.547 38.2267 688.48 37.84 687.12 37.84C685.493 37.84 684.347 38.3467 683.68 39.36C683.6 39.4667 683.467 39.6533 683.28 39.92H677.36ZM745.761 23.48V52H739.121V30.92L732.201 34.8V28.6L740.801 23.48H745.761ZM774.228 44.28C774.228 46.2 773.681 47.8 772.588 49.08C771.494 50.36 770.174 51.2533 768.628 51.76C767.108 52.24 765.414 52.48 763.548 52.48H762.348C759.388 52.48 756.881 51.8 754.828 50.44C752.774 49.08 751.748 47.0267 751.748 44.28C751.748 42.7067 752.174 41.28 753.028 40C753.881 38.72 755.041 37.8533 756.508 37.4C756.054 37.24 755.574 37 755.068 36.68C754.188 36.2 753.494 35.4133 752.988 34.32C752.481 33.2267 752.228 32.12 752.228 31C752.228 29.88 752.428 28.8667 752.828 27.96C753.228 27.0533 753.748 26.3067 754.388 25.72C755.054 25.1067 755.828 24.6133 756.708 24.24C757.614 23.84 758.534 23.56 759.468 23.4C760.428 23.2133 761.414 23.12 762.428 23.12H763.548C765.388 23.12 767.041 23.3733 768.508 23.88C769.974 24.36 771.214 25.2133 772.228 26.44C773.241 27.6667 773.748 29.1867 773.748 31C773.748 32.52 773.374 33.8533 772.628 35C771.908 36.1467 770.854 36.96 769.468 37.44C770.614 37.7867 771.668 38.48 772.628 39.52C773.081 40.1067 773.468 40.7733 773.788 41.52C774.081 42.3467 774.228 43.2667 774.228 44.28ZM763.268 28.32H762.668C761.574 28.32 760.654 28.6133 759.908 29.2C759.188 29.76 758.828 30.5733 758.828 31.64C758.828 32.68 759.201 33.5067 759.948 34.12C760.694 34.7067 761.601 35 762.668 35H763.268C764.361 35 765.268 34.7067 765.988 34.12C766.734 33.5333 767.108 32.7067 767.108 31.64C767.108 30.5467 766.748 29.72 766.028 29.16C765.308 28.6 764.388 28.32 763.268 28.32ZM763.348 40.08H762.588C761.441 40.08 760.468 40.4 759.668 41.04C758.894 41.68 758.508 42.56 758.508 43.68C758.508 44.8 758.894 45.68 759.668 46.32C760.468 46.96 761.441 47.28 762.588 47.28H763.348C764.521 47.28 765.494 46.9733 766.268 46.36C767.041 45.72 767.428 44.8267 767.428 43.68C767.428 42.5333 767.041 41.6533 766.268 41.04C765.494 40.4 764.521 40.08 763.348 40.08ZM800.982 42.16C800.982 45.36 799.902 47.88 797.742 49.72C795.609 51.56 792.942 52.48 789.742 52.48C786.489 52.48 783.795 51.56 781.662 49.72C779.555 47.8533 778.502 45.3467 778.502 42.2C778.502 40.0667 778.889 38.2133 779.662 36.64C780.435 35.04 781.622 33.2133 783.222 31.16L789.142 23.6H796.502L788.382 33.92C789.529 33.2 790.822 32.84 792.262 32.84C794.982 32.84 797.115 33.72 798.662 35.48C800.209 37.24 800.982 39.4667 800.982 42.16ZM794.342 42.16C794.342 40.7733 793.915 39.68 793.062 38.88C792.235 38.0533 791.129 37.64 789.742 37.64C788.382 37.64 787.275 38.0667 786.422 38.92C785.569 39.7467 785.142 40.84 785.142 42.2C785.142 43.5333 785.569 44.6133 786.422 45.44C787.275 46.24 788.382 46.64 789.742 46.64C791.129 46.64 792.235 46.24 793.062 45.44C793.915 44.6133 794.342 43.52 794.342 42.16ZM805.983 52V44.16H813.463V52H805.983ZM840.744 46.2V52H818.744V47.6L829.304 38.04C829.997 37.4 830.53 36.8667 830.904 36.44C831.304 36.0133 831.677 35.4533 832.024 34.76C832.397 34.04 832.584 33.3067 832.584 32.56C832.584 31.4667 832.25 30.6133 831.584 30C830.944 29.36 830.064 29.04 828.944 29.04C827.797 29.04 826.904 29.4 826.264 30.12C825.624 30.84 825.304 31.7867 825.304 32.96V34.48H818.824V32.76C818.824 29.8 819.77 27.4533 821.664 25.72C823.584 23.9867 826.01 23.12 828.944 23.12C832.01 23.12 834.504 23.92 836.424 25.52C838.344 27.12 839.304 29.3867 839.304 32.32C839.304 34.3467 838.77 36.1333 837.704 37.68C836.664 39.2 835.17 40.8 833.224 42.48L829.144 46.2H840.744ZM855.968 23.08C859.354 23.08 862.021 24.0267 863.968 25.92C865.914 27.7867 866.888 30.3733 866.888 33.68V41.92C866.888 45.28 865.888 47.8933 863.888 49.76C861.914 51.6 859.274 52.52 855.968 52.52C852.581 52.52 849.914 51.5867 847.968 49.72C846.021 47.8267 845.048 45.2267 845.048 41.92V33.68C845.048 30.32 846.034 27.72 848.008 25.88C850.008 24.0133 852.661 23.08 855.968 23.08ZM852.768 45.2C853.488 46.08 854.554 46.52 855.968 46.52C857.381 46.52 858.448 46.08 859.168 45.2C859.888 44.32 860.248 43.16 860.248 41.72V33.88C860.248 32.4133 859.888 31.2533 859.168 30.4C858.448 29.52 857.381 29.08 855.968 29.08C854.554 29.08 853.488 29.52 852.768 30.4C852.048 31.28 851.688 32.44 851.688 33.88V41.72C851.688 43.16 852.048 44.32 852.768 45.2ZM892.946 27.88L880.386 52H872.946L884.986 29.48H871.346V23.6H892.946V27.88Z" fill="white"/>
<path d="M979.12 19.48V48H972.48V26.92L965.56 30.8V24.6L974.16 19.48H979.12ZM996.827 19.08C1000.21 19.08 1002.88 20.0267 1004.83 21.92C1006.77 23.7867 1007.75 26.3733 1007.75 29.68V37.92C1007.75 41.28 1006.75 43.8933 1004.75 45.76C1002.77 47.6 1000.13 48.52 996.827 48.52C993.441 48.52 990.774 47.5867 988.827 45.72C986.881 43.8267 985.907 41.2267 985.907 37.92V29.68C985.907 26.32 986.894 23.72 988.867 21.88C990.867 20.0133 993.521 19.08 996.827 19.08ZM993.627 41.2C994.347 42.08 995.414 42.52 996.827 42.52C998.241 42.52 999.307 42.08 1000.03 41.2C1000.75 40.32 1001.11 39.16 1001.11 37.72V29.88C1001.11 28.4133 1000.75 27.2533 1000.03 26.4C999.307 25.52 998.241 25.08 996.827 25.08C995.414 25.08 994.347 25.52 993.627 26.4C992.907 27.28 992.547 28.44 992.547 29.88V37.72C992.547 39.16 992.907 40.32 993.627 41.2ZM1105.78 42.2V48H1083.78V43.6L1094.34 34.04C1095.04 33.4 1095.57 32.8667 1095.94 32.44C1096.34 32.0133 1096.72 31.4533 1097.06 30.76C1097.44 30.04 1097.62 29.3067 1097.62 28.56C1097.62 27.4667 1097.29 26.6133 1096.62 26C1095.98 25.36 1095.1 25.04 1093.98 25.04C1092.84 25.04 1091.94 25.4 1091.3 26.12C1090.66 26.84 1090.34 27.7867 1090.34 28.96V30.48H1083.86V28.76C1083.86 25.8 1084.81 23.4533 1086.7 21.72C1088.62 19.9867 1091.05 19.12 1093.98 19.12C1097.05 19.12 1099.54 19.92 1101.46 21.52C1103.38 23.12 1104.34 25.3867 1104.34 28.32C1104.34 30.3467 1103.81 32.1333 1102.74 33.68C1101.7 35.2 1100.21 36.8 1098.26 38.48L1094.18 42.2H1105.78ZM1121.01 19.08C1124.39 19.08 1127.06 20.0267 1129.01 21.92C1130.95 23.7867 1131.93 26.3733 1131.93 29.68V37.92C1131.93 41.28 1130.93 43.8933 1128.93 45.76C1126.95 47.6 1124.31 48.52 1121.01 48.52C1117.62 48.52 1114.95 47.5867 1113.01 45.72C1111.06 43.8267 1110.09 41.2267 1110.09 37.92V29.68C1110.09 26.32 1111.07 23.72 1113.05 21.88C1115.05 20.0133 1117.7 19.08 1121.01 19.08ZM1117.81 41.2C1118.53 42.08 1119.59 42.52 1121.01 42.52C1122.42 42.52 1123.49 42.08 1124.21 41.2C1124.93 40.32 1125.29 39.16 1125.29 37.72V29.88C1125.29 28.4133 1124.93 27.2533 1124.21 26.4C1123.49 25.52 1122.42 25.08 1121.01 25.08C1119.59 25.08 1118.53 25.52 1117.81 26.4C1117.09 27.28 1116.73 28.44 1116.73 29.88V37.72C1116.73 39.16 1117.09 40.32 1117.81 41.2ZM1137.94 48V40.16H1145.42V48H1137.94ZM1160.6 19.48V48H1153.96V26.92L1147.04 30.8V24.6L1155.64 19.48H1160.6ZM1189.07 40.28C1189.07 42.2 1188.52 43.8 1187.43 45.08C1186.34 46.36 1185.02 47.2533 1183.47 47.76C1181.95 48.24 1180.26 48.48 1178.39 48.48H1177.19C1174.23 48.48 1171.72 47.8 1169.67 46.44C1167.62 45.08 1166.59 43.0267 1166.59 40.28C1166.59 38.7067 1167.02 37.28 1167.87 36C1168.72 34.72 1169.88 33.8533 1171.35 33.4C1170.9 33.24 1170.42 33 1169.91 32.68C1169.03 32.2 1168.34 31.4133 1167.83 30.32C1167.32 29.2267 1167.07 28.12 1167.07 27C1167.07 25.88 1167.27 24.8667 1167.67 23.96C1168.07 23.0533 1168.59 22.3067 1169.23 21.72C1169.9 21.1067 1170.67 20.6133 1171.55 20.24C1172.46 19.84 1173.38 19.56 1174.31 19.4C1175.27 19.2133 1176.26 19.12 1177.27 19.12H1178.39C1180.23 19.12 1181.88 19.3733 1183.35 19.88C1184.82 20.36 1186.06 21.2133 1187.07 22.44C1188.08 23.6667 1188.59 25.1867 1188.59 27C1188.59 28.52 1188.22 29.8533 1187.47 31C1186.75 32.1467 1185.7 32.96 1184.31 33.44C1185.46 33.7867 1186.51 34.48 1187.47 35.52C1187.92 36.1067 1188.31 36.7733 1188.63 37.52C1188.92 38.3467 1189.07 39.2667 1189.07 40.28ZM1178.11 24.32H1177.51C1176.42 24.32 1175.5 24.6133 1174.75 25.2C1174.03 25.76 1173.67 26.5733 1173.67 27.64C1173.67 28.68 1174.04 29.5067 1174.79 30.12C1175.54 30.7067 1176.44 31 1177.51 31H1178.11C1179.2 31 1180.11 30.7067 1180.83 30.12C1181.58 29.5333 1181.95 28.7067 1181.95 27.64C1181.95 26.5467 1181.59 25.72 1180.87 25.16C1180.15 24.6 1179.23 24.32 1178.11 24.32ZM1178.19 36.08H1177.43C1176.28 36.08 1175.31 36.4 1174.51 37.04C1173.74 37.68 1173.35 38.56 1173.35 39.68C1173.35 40.8 1173.74 41.68 1174.51 42.32C1175.31 42.96 1176.28 43.28 1177.43 43.28H1178.19C1179.36 43.28 1180.34 42.9733 1181.11 42.36C1181.88 41.72 1182.27 40.8267 1182.27 39.68C1182.27 38.5333 1181.88 37.6533 1181.11 37.04C1180.34 36.4 1179.36 36.08 1178.19 36.08ZM1205.23 19.08C1208.61 19.08 1211.28 20.0267 1213.23 21.92C1215.17 23.7867 1216.15 26.3733 1216.15 29.68V37.92C1216.15 41.28 1215.15 43.8933 1213.15 45.76C1211.17 47.6 1208.53 48.52 1205.23 48.52C1201.84 48.52 1199.17 47.5867 1197.23 45.72C1195.28 43.8267 1194.31 41.2267 1194.31 37.92V29.68C1194.31 26.32 1195.29 23.72 1197.27 21.88C1199.27 20.0133 1201.92 19.08 1205.23 19.08ZM1202.03 41.2C1202.75 42.08 1203.81 42.52 1205.23 42.52C1206.64 42.52 1207.71 42.08 1208.43 41.2C1209.15 40.32 1209.51 39.16 1209.51 37.72V29.88C1209.51 28.4133 1209.15 27.2533 1208.43 26.4C1207.71 25.52 1206.64 25.08 1205.23 25.08C1203.81 25.08 1202.75 25.52 1202.03 26.4C1201.31 27.28 1200.95 28.44 1200.95 29.88V37.72C1200.95 39.16 1201.31 40.32 1202.03 41.2Z" fill="white"/>
<path d="M78.12 277.52C74.8133 277.52 73.16 278.413 73.16 280.2C73.16 281.747 74.44 282.653 77 282.92C78.04 283.027 78.76 283.093 79.16 283.12C80.6533 283.2 81.9467 283.32 83.04 283.48C84.1333 283.64 85.2933 283.92 86.52 284.32C87.7467 284.72 88.7467 285.24 89.52 285.88C90.2933 286.52 90.9333 287.387 91.44 288.48C91.9733 289.573 92.24 290.867 92.24 292.36C92.24 294.067 91.8667 295.547 91.12 296.8C90.3733 298.053 89.36 299.013 88.08 299.68C86.8267 300.32 85.5067 300.787 84.12 301.08C82.7333 301.373 81.24 301.52 79.64 301.52C77.4 301.52 75.3467 301.253 73.48 300.72C71.6133 300.187 69.92 299.227 68.4 297.84C66.9067 296.453 65.9067 294.707 65.4 292.6H72.56C72.7467 293.027 73 293.413 73.32 293.76C73.64 294.187 74.0933 294.56 74.68 294.88C75.9067 295.653 77.56 296.04 79.64 296.04C80.2533 296.04 80.84 296 81.4 295.92C81.96 295.84 82.5467 295.693 83.16 295.48C83.7733 295.267 84.2667 294.933 84.64 294.48C85.0133 294.027 85.2 293.48 85.2 292.84C85.2 291.747 84.8267 290.987 84.08 290.56C83.36 290.133 82.36 289.853 81.08 289.72C80.2533 289.613 79.4933 289.533 78.8 289.48C70.4 288.973 66.2 285.973 66.2 280.48C66.2 279.227 66.44 278.107 66.92 277.12C67.4267 276.133 68.0667 275.333 68.84 274.72C69.64 274.107 70.5733 273.6 71.64 273.2C72.7067 272.773 73.7733 272.48 74.84 272.32C75.9067 272.16 77 272.08 78.12 272.08C79.64 272.08 81.08 272.213 82.44 272.48C83.8 272.747 85.12 273.173 86.4 273.76C87.7067 274.347 88.8133 275.187 89.72 276.28C90.6267 277.347 91.24 278.627 91.56 280.12H84.72C84.5867 279.88 84.3467 279.587 84 279.24C83.6267 278.973 83.1867 278.693 82.68 278.4C81.4267 277.813 79.9067 277.52 78.12 277.52ZM107.673 301.48C104.42 301.48 101.807 300.613 99.8334 298.88C97.8868 297.147 96.9134 294.707 96.9134 291.56V280.28H103.433V291.08C103.433 292.44 103.78 293.52 104.473 294.32C105.193 295.12 106.22 295.52 107.553 295.52C108.887 295.52 109.913 295.12 110.633 294.32C111.353 293.52 111.713 292.44 111.713 291.08V280.28H118.233V291.56C118.233 294.76 117.26 297.213 115.313 298.92C113.393 300.627 110.847 301.48 107.673 301.48ZM140.595 285.6H133.755V301H127.235V285.6H121.875V280.28H127.235V277.48C127.235 275.507 127.795 274.027 128.915 273.04C130.062 272.053 131.648 271.56 133.675 271.56H141.795V276.44H136.395C135.488 276.44 134.822 276.64 134.395 277.04C133.968 277.44 133.755 278.093 133.755 279V280.28H140.595V285.6ZM144.538 301V271.56H151.058V301H144.538ZM167.4 301.48C164.147 301.48 161.533 300.613 159.56 298.88C157.613 297.147 156.64 294.707 156.64 291.56V280.28H163.16V291.08C163.16 292.44 163.507 293.52 164.2 294.32C164.92 295.12 165.947 295.52 167.28 295.52C168.613 295.52 169.64 295.12 170.36 294.32C171.08 293.52 171.44 292.44 171.44 291.08V280.28H177.96V291.56C177.96 294.76 176.987 297.213 175.04 298.92C173.12 300.627 170.573 301.48 167.4 301.48ZM189.962 290.88V301H183.482V280.28H189.962V283.52C191.055 281.333 193.148 280.24 196.242 280.24H200.682V286.64H195.002C193.348 286.64 192.095 286.96 191.242 287.6C190.388 288.213 189.962 289.307 189.962 290.88Z" fill="white"/>
<path d="M692.44 301V272.6H709.08C712.173 272.6 714.627 273.333 716.44 274.8C718.28 276.267 719.2 278.507 719.2 281.52C719.2 283.44 718.747 285.08 717.84 286.44C716.933 287.8 715.587 288.8 713.8 289.44L720.2 301H713.04L707.04 290.2H699.24V301H692.44ZM708.36 278.44H699.24V284.48H708.36C710.947 284.48 712.24 283.493 712.24 281.52C712.24 280.373 711.893 279.573 711.2 279.12C710.533 278.667 709.587 278.44 708.36 278.44ZM730.938 290.12V301H724.458V271.56H730.938V283.48C731.551 282.36 732.485 281.48 733.738 280.84C734.991 280.173 736.285 279.84 737.618 279.84C740.231 279.84 742.285 280.693 743.778 282.4C745.298 284.08 746.058 286.213 746.058 288.8V301H739.538V290.12C739.538 288.76 739.165 287.667 738.418 286.84C737.671 286.013 736.618 285.6 735.258 285.6C733.925 285.6 732.871 286.027 732.098 286.88C731.325 287.707 730.938 288.787 730.938 290.12ZM761.448 279.76C764.834 279.76 767.528 280.773 769.528 282.8C771.528 284.8 772.528 287.453 772.528 290.76V291.88H756.768C756.928 293.24 757.474 294.347 758.408 295.2C759.341 296.027 760.501 296.44 761.888 296.44C763.088 296.44 764.034 296.227 764.728 295.8C765.208 295.587 765.594 295.267 765.888 294.84H772.328C772.141 296.2 771.488 297.413 770.368 298.48C769.248 299.52 767.954 300.293 766.488 300.8C765.208 301.28 763.674 301.52 761.888 301.52C758.528 301.52 755.768 300.533 753.608 298.56C751.448 296.56 750.368 293.92 750.368 290.64C750.368 287.333 751.394 284.693 753.448 282.72C755.528 280.747 758.194 279.76 761.448 279.76ZM761.448 284.48C760.301 284.48 759.314 284.787 758.488 285.4C757.688 285.987 757.154 286.827 756.888 287.92H766.008C765.394 285.627 763.874 284.48 761.448 284.48ZM783.438 290.12V301H776.958V280.28H783.438V283.48C784.051 282.36 784.985 281.48 786.238 280.84C787.491 280.173 788.785 279.84 790.118 279.84C792.731 279.84 794.785 280.693 796.278 282.4C797.798 284.08 798.558 286.213 798.558 288.8V301H792.038V290.12C792.038 288.76 791.665 287.667 790.918 286.84C790.171 286.013 789.118 285.6 787.758 285.6C786.425 285.6 785.371 286.027 784.598 286.88C783.825 287.707 783.438 288.787 783.438 290.12ZM803.948 277.6V271.2H810.748V277.6H803.948ZM804.108 301V280.28H810.628V301H804.108ZM826.931 301.48C823.678 301.48 821.065 300.613 819.091 298.88C817.145 297.147 816.171 294.707 816.171 291.56V280.28H822.691V291.08C822.691 292.44 823.038 293.52 823.731 294.32C824.451 295.12 825.478 295.52 826.811 295.52C828.145 295.52 829.171 295.12 829.891 294.32C830.611 293.52 830.971 292.44 830.971 291.08V280.28H837.491V291.56C837.491 294.76 836.518 297.213 834.571 298.92C832.651 300.627 830.105 301.48 826.931 301.48ZM849.493 290.08V301H843.013V280.28H849.493V283.4C850.213 282.28 851.159 281.413 852.333 280.8C853.506 280.16 854.759 279.84 856.093 279.84C859.559 279.84 861.999 281.28 863.413 284.16C864.986 281.28 867.493 279.84 870.933 279.84C873.386 279.84 875.439 280.667 877.093 282.32C878.586 284 879.333 286.147 879.333 288.76V301H872.813V290.08C872.813 288.747 872.453 287.667 871.733 286.84C871.013 286.013 869.986 285.6 868.653 285.6C867.346 285.6 866.306 286.013 865.533 286.84C864.786 287.667 864.413 288.747 864.413 290.08V301H857.893V290.08C857.893 288.747 857.533 287.667 856.813 286.84C856.093 286.013 855.066 285.6 853.733 285.6C852.426 285.6 851.386 286.013 850.613 286.84C849.866 287.667 849.493 288.747 849.493 290.08Z" fill="white"/>
<path d="M1068.08 272.6V301.08H1062.56L1047.08 281.44V301H1040.44V272.6H1048.16L1061.6 290V272.6H1068.08ZM1084.29 279.76C1087.68 279.76 1090.37 280.773 1092.37 282.8C1094.37 284.8 1095.37 287.453 1095.37 290.76V291.88H1079.61C1079.77 293.24 1080.32 294.347 1081.25 295.2C1082.18 296.027 1083.34 296.44 1084.73 296.44C1085.93 296.44 1086.88 296.227 1087.57 295.8C1088.05 295.587 1088.44 295.267 1088.73 294.84H1095.17C1094.98 296.2 1094.33 297.413 1093.21 298.48C1092.09 299.52 1090.8 300.293 1089.33 300.8C1088.05 301.28 1086.52 301.52 1084.73 301.52C1081.37 301.52 1078.61 300.533 1076.45 298.56C1074.29 296.56 1073.21 293.92 1073.21 290.64C1073.21 287.333 1074.24 284.693 1076.29 282.72C1078.37 280.747 1081.04 279.76 1084.29 279.76ZM1084.29 284.48C1083.14 284.48 1082.16 284.787 1081.33 285.4C1080.53 285.987 1080 286.827 1079.73 287.92H1088.85C1088.24 285.627 1086.72 284.48 1084.29 284.48ZM1109.96 279.76C1113.24 279.76 1115.95 280.773 1118.08 282.8C1120.24 284.827 1121.32 287.44 1121.32 290.64C1121.32 293.867 1120.23 296.493 1118.04 298.52C1115.86 300.52 1113.16 301.52 1109.96 301.52C1106.71 301.52 1104 300.507 1101.84 298.48C1099.68 296.453 1098.6 293.84 1098.6 290.64C1098.6 287.413 1099.7 284.8 1101.88 282.8C1104.07 280.773 1106.76 279.76 1109.96 279.76ZM1109.96 295.88C1111.03 295.88 1111.95 295.6 1112.72 295.04C1113.52 294.48 1114.11 293.707 1114.48 292.72C1114.7 292.027 1114.8 291.333 1114.8 290.64C1114.8 289.947 1114.7 289.253 1114.48 288.56C1113.68 286.453 1112.18 285.4 1109.96 285.4C1108.5 285.4 1107.31 285.907 1106.4 286.92C1105.52 287.933 1105.08 289.173 1105.08 290.64C1105.08 292.107 1105.54 293.347 1106.44 294.36C1107.35 295.373 1108.52 295.88 1109.96 295.88ZM1132.34 290.12V301H1125.86V280.28H1132.34V283.48C1132.95 282.36 1133.88 281.48 1135.14 280.84C1136.39 280.173 1137.68 279.84 1139.02 279.84C1141.63 279.84 1143.68 280.693 1145.18 282.4C1146.7 284.08 1147.46 286.213 1147.46 288.8V301H1140.94V290.12C1140.94 288.76 1140.56 287.667 1139.82 286.84C1139.07 286.013 1138.02 285.6 1136.66 285.6C1135.32 285.6 1134.27 286.027 1133.5 286.88C1132.72 287.707 1132.34 288.787 1132.34 290.12Z" fill="white"/>
<rect x="369" y="362" width="272" height="343" stroke="white" stroke-width="4"/>
<rect x="1005" y="362" width="272" height="343" stroke="white" stroke-width="4"/>
<path d="M532.446 600.158L507.008 525.74L481.254 600.158H457.238L419.634 487.82H449.18L471.616 560.184L495.632 487.662H520.28L544.454 560.342L567.048 487.82H593.592L557.094 600.158H532.446Z" fill="white"/>
<path d="M1095.59 600V487.82H1160.37C1171.43 487.82 1180.43 490.295 1187.39 495.246C1194.44 500.091 1197.97 507.781 1197.97 518.314C1197.97 521.053 1197.55 523.686 1196.71 526.214C1193.97 533.166 1189.12 538.011 1182.17 540.75C1184.17 541.382 1186.54 542.541 1189.28 544.226C1196.97 549.809 1200.82 557.709 1200.82 567.926C1200.82 578.775 1197.08 586.833 1189.6 592.1C1182.22 597.367 1172.85 600 1161.47 600H1095.59ZM1156.1 509.466H1121.97V531.586H1156.1C1165.79 531.586 1170.64 527.899 1170.64 520.526C1170.64 516.313 1169.32 513.416 1166.69 511.836C1164.16 510.256 1160.63 509.466 1156.1 509.466ZM1156.73 553.232H1121.97V578.354H1156.73C1167.9 578.354 1173.48 574.141 1173.48 565.714C1173.48 557.393 1167.9 553.232 1156.73 553.232Z" fill="white"/>
<path d="M400.36 386.88L387.8 411H380.36L392.4 388.48H378.76V382.6H400.36V386.88ZM427.878 403.36H422.398V411H415.918V403.36H401.798V399L414.758 382.6H422.398V397.76H427.878V403.36ZM408.758 397.76H415.918V388.52L408.758 397.76ZM504.776 382.48V411H498.136V389.92L491.216 393.8V387.6L499.816 382.48H504.776ZM533.243 403.28C533.243 405.2 532.697 406.8 531.603 408.08C530.51 409.36 529.19 410.253 527.643 410.76C526.123 411.24 524.43 411.48 522.563 411.48H521.363C518.403 411.48 515.897 410.8 513.843 409.44C511.79 408.08 510.763 406.027 510.763 403.28C510.763 401.707 511.19 400.28 512.043 399C512.897 397.72 514.057 396.853 515.523 396.4C515.07 396.24 514.59 396 514.083 395.68C513.203 395.2 512.51 394.413 512.003 393.32C511.497 392.227 511.243 391.12 511.243 390C511.243 388.88 511.443 387.867 511.843 386.96C512.243 386.053 512.763 385.307 513.403 384.72C514.07 384.107 514.843 383.613 515.723 383.24C516.63 382.84 517.55 382.56 518.483 382.4C519.443 382.213 520.43 382.12 521.443 382.12H522.563C524.403 382.12 526.057 382.373 527.523 382.88C528.99 383.36 530.23 384.213 531.243 385.44C532.257 386.667 532.763 388.187 532.763 390C532.763 391.52 532.39 392.853 531.643 394C530.923 395.147 529.87 395.96 528.483 396.44C529.63 396.787 530.683 397.48 531.643 398.52C532.097 399.107 532.483 399.773 532.803 400.52C533.097 401.347 533.243 402.267 533.243 403.28ZM522.283 387.32H521.683C520.59 387.32 519.67 387.613 518.923 388.2C518.203 388.76 517.843 389.573 517.843 390.64C517.843 391.68 518.217 392.507 518.963 393.12C519.71 393.707 520.617 394 521.683 394H522.283C523.377 394 524.283 393.707 525.003 393.12C525.75 392.533 526.123 391.707 526.123 390.64C526.123 389.547 525.763 388.72 525.043 388.16C524.323 387.6 523.403 387.32 522.283 387.32ZM522.363 399.08H521.603C520.457 399.08 519.483 399.4 518.683 400.04C517.91 400.68 517.523 401.56 517.523 402.68C517.523 403.8 517.91 404.68 518.683 405.32C519.483 405.96 520.457 406.28 521.603 406.28H522.363C523.537 406.28 524.51 405.973 525.283 405.36C526.057 404.72 526.443 403.827 526.443 402.68C526.443 401.533 526.057 400.653 525.283 400.04C524.51 399.4 523.537 399.08 522.363 399.08ZM559.518 402.8C559.518 404.8 558.944 406.48 557.798 407.84C556.651 409.2 555.264 410.147 553.638 410.68C552.038 411.213 550.264 411.48 548.318 411.48C545.384 411.48 542.824 410.707 540.638 409.16C538.451 407.613 537.238 405.453 536.998 402.68H543.718C543.851 403.613 544.384 404.347 545.318 404.88C546.278 405.387 547.264 405.64 548.278 405.64C549.531 405.64 550.584 405.387 551.438 404.88C552.291 404.373 552.718 403.547 552.718 402.4C552.718 400.347 551.571 399.32 549.278 399.32H543.638V393.6H548.838C549.771 393.6 550.518 393.373 551.078 392.92C551.638 392.467 551.918 391.787 551.918 390.88C551.918 389.84 551.544 389.08 550.798 388.6C550.051 388.093 549.131 387.84 548.038 387.84C546.731 387.84 545.758 388.16 545.118 388.8C544.504 389.307 544.158 389.907 544.078 390.6H537.478C537.558 388.813 538.131 387.253 539.198 385.92C540.264 384.587 541.664 383.573 543.398 382.88C544.678 382.373 546.224 382.12 548.038 382.12C549.478 382.12 550.798 382.267 551.998 382.56C553.198 382.827 554.304 383.267 555.318 383.88C556.331 384.467 557.131 385.307 557.718 386.4C558.304 387.493 558.598 388.787 558.598 390.28C558.598 391.053 558.491 391.76 558.278 392.4C557.584 394.133 556.464 395.307 554.918 395.92C555.478 396.08 556.024 396.32 556.557 396.64C558.531 398.027 559.518 400.08 559.518 402.8ZM564.568 411V403.16H572.048V411H564.568ZM599.65 403.28C599.65 405.2 599.103 406.8 598.01 408.08C596.916 409.36 595.596 410.253 594.05 410.76C592.53 411.24 590.836 411.48 588.97 411.48H587.77C584.81 411.48 582.303 410.8 580.25 409.44C578.196 408.08 577.17 406.027 577.17 403.28C577.17 401.707 577.596 400.28 578.45 399C579.303 397.72 580.463 396.853 581.93 396.4C581.476 396.24 580.996 396 580.49 395.68C579.61 395.2 578.916 394.413 578.41 393.32C577.903 392.227 577.65 391.12 577.65 390C577.65 388.88 577.85 387.867 578.25 386.96C578.65 386.053 579.17 385.307 579.81 384.72C580.476 384.107 581.25 383.613 582.13 383.24C583.036 382.84 583.956 382.56 584.89 382.4C585.85 382.213 586.836 382.12 587.85 382.12H588.97C590.81 382.12 592.463 382.373 593.93 382.88C595.396 383.36 596.636 384.213 597.65 385.44C598.663 386.667 599.17 388.187 599.17 390C599.17 391.52 598.796 392.853 598.05 394C597.33 395.147 596.276 395.96 594.89 396.44C596.036 396.787 597.09 397.48 598.05 398.52C598.503 399.107 598.89 399.773 599.21 400.52C599.503 401.347 599.65 402.267 599.65 403.28ZM588.69 387.32H588.09C586.996 387.32 586.076 387.613 585.33 388.2C584.61 388.76 584.25 389.573 584.25 390.64C584.25 391.68 584.623 392.507 585.37 393.12C586.116 393.707 587.023 394 588.09 394H588.69C589.783 394 590.69 393.707 591.41 393.12C592.156 392.533 592.53 391.707 592.53 390.64C592.53 389.547 592.17 388.72 591.45 388.16C590.73 387.6 589.81 387.32 588.69 387.32ZM588.77 399.08H588.01C586.863 399.08 585.89 399.4 585.09 400.04C584.316 400.68 583.93 401.56 583.93 402.68C583.93 403.8 584.316 404.68 585.09 405.32C585.89 405.96 586.863 406.28 588.01 406.28H588.77C589.943 406.28 590.916 405.973 591.69 405.36C592.463 404.72 592.85 403.827 592.85 402.68C592.85 401.533 592.463 400.653 591.69 400.04C590.916 399.4 589.943 399.08 588.77 399.08ZM629.324 403.36H623.844V411H617.364V403.36H603.244V399L616.204 382.6H623.844V397.76H629.324V403.36ZM610.204 397.76H617.364V388.52L610.204 397.76Z" fill="white"/>
<path d="M1020.36 398.92V382.6H1040.12V388.04H1026.6V393.52C1027.8 392.107 1029.63 391.4 1032.08 391.4C1034.85 391.4 1037.07 392.32 1038.72 394.16C1040.37 395.973 1041.2 398.267 1041.2 401.04V401.2C1041.2 404.4 1040.15 406.92 1038.04 408.76C1035.96 410.573 1033.32 411.48 1030.12 411.48C1027.08 411.48 1024.49 410.667 1022.36 409.04C1020.23 407.413 1019.11 405.147 1019 402.24H1025.72C1025.8 402.88 1026.08 403.48 1026.56 404.04C1027.04 404.6 1027.59 405 1028.2 405.24C1028.73 405.48 1029.37 405.6 1030.12 405.6C1031.4 405.6 1032.45 405.2 1033.28 404.4C1034.11 403.6 1034.52 402.56 1034.52 401.28V401.16C1034.52 399.8 1034.12 398.747 1033.32 398C1032.55 397.227 1031.48 396.84 1030.12 396.84C1028.49 396.84 1027.35 397.347 1026.68 398.36C1026.6 398.467 1026.47 398.653 1026.28 398.92H1020.36ZM1159.31 382.48V411H1152.67V389.92L1145.75 393.8V387.6L1154.35 382.48H1159.31ZM1177.01 382.08C1180.4 382.08 1183.07 383.027 1185.01 384.92C1186.96 386.787 1187.93 389.373 1187.93 392.68V400.92C1187.93 404.28 1186.93 406.893 1184.93 408.76C1182.96 410.6 1180.32 411.52 1177.01 411.52C1173.63 411.52 1170.96 410.587 1169.01 408.72C1167.07 406.827 1166.09 404.227 1166.09 400.92V392.68C1166.09 389.32 1167.08 386.72 1169.05 384.88C1171.05 383.013 1173.71 382.08 1177.01 382.08ZM1173.81 404.2C1174.53 405.08 1175.6 405.52 1177.01 405.52C1178.43 405.52 1179.49 405.08 1180.21 404.2C1180.93 403.32 1181.29 402.16 1181.29 400.72V392.88C1181.29 391.413 1180.93 390.253 1180.21 389.4C1179.49 388.52 1178.43 388.08 1177.01 388.08C1175.6 388.08 1174.53 388.52 1173.81 389.4C1173.09 390.28 1172.73 391.44 1172.73 392.88V400.72C1172.73 402.16 1173.09 403.32 1173.81 404.2ZM1193.94 411V403.16H1201.42V411H1193.94ZM1229.02 403.28C1229.02 405.2 1228.48 406.8 1227.38 408.08C1226.29 409.36 1224.97 410.253 1223.42 410.76C1221.9 411.24 1220.21 411.48 1218.34 411.48H1217.14C1214.18 411.48 1211.68 410.8 1209.62 409.44C1207.57 408.08 1206.54 406.027 1206.54 403.28C1206.54 401.707 1206.97 400.28 1207.82 399C1208.68 397.72 1209.84 396.853 1211.3 396.4C1210.85 396.24 1210.37 396 1209.86 395.68C1208.98 395.2 1208.29 394.413 1207.78 393.32C1207.28 392.227 1207.02 391.12 1207.02 390C1207.02 388.88 1207.22 387.867 1207.62 386.96C1208.02 386.053 1208.54 385.307 1209.18 384.72C1209.85 384.107 1210.62 383.613 1211.5 383.24C1212.41 382.84 1213.33 382.56 1214.26 382.4C1215.22 382.213 1216.21 382.12 1217.22 382.12H1218.34C1220.18 382.12 1221.84 382.373 1223.3 382.88C1224.77 383.36 1226.01 384.213 1227.02 385.44C1228.04 386.667 1228.54 388.187 1228.54 390C1228.54 391.52 1228.17 392.853 1227.42 394C1226.7 395.147 1225.65 395.96 1224.26 396.44C1225.41 396.787 1226.46 397.48 1227.42 398.52C1227.88 399.107 1228.26 399.773 1228.58 400.52C1228.88 401.347 1229.02 402.267 1229.02 403.28ZM1218.06 387.32H1217.46C1216.37 387.32 1215.45 387.613 1214.7 388.2C1213.98 388.76 1213.62 389.573 1213.62 390.64C1213.62 391.68 1214 392.507 1214.74 393.12C1215.49 393.707 1216.4 394 1217.46 394H1218.06C1219.16 394 1220.06 393.707 1220.78 393.12C1221.53 392.533 1221.9 391.707 1221.9 390.64C1221.9 389.547 1221.54 388.72 1220.82 388.16C1220.1 387.6 1219.18 387.32 1218.06 387.32ZM1218.14 399.08H1217.38C1216.24 399.08 1215.26 399.4 1214.46 400.04C1213.69 400.68 1213.3 401.56 1213.3 402.68C1213.3 403.8 1213.69 404.68 1214.46 405.32C1215.26 405.96 1216.24 406.28 1217.38 406.28H1218.14C1219.32 406.28 1220.29 405.973 1221.06 405.36C1221.84 404.72 1222.22 403.827 1222.22 402.68C1222.22 401.533 1221.84 400.653 1221.06 400.04C1220.29 399.4 1219.32 399.08 1218.14 399.08ZM1246.34 382.48V411H1239.7V389.92L1232.78 393.8V387.6L1241.38 382.48H1246.34ZM1265.21 382.48V411H1258.57V389.92L1251.65 393.8V387.6L1260.25 382.48H1265.21Z" fill="white"/>
<path d="M393.4 649.52V643.6H421.68V649.52H410.92V672H404.16V649.52H393.4ZM435.088 672.48C431.834 672.48 429.221 671.613 427.248 669.88C425.301 668.147 424.327 665.707 424.327 662.56V651.28H430.848V662.08C430.848 663.44 431.194 664.52 431.888 665.32C432.608 666.12 433.634 666.52 434.968 666.52C436.301 666.52 437.328 666.12 438.048 665.32C438.768 664.52 439.128 663.44 439.128 662.08V651.28H445.648V662.56C445.648 665.76 444.674 668.213 442.728 669.92C440.808 671.627 438.261 672.48 435.088 672.48ZM457.649 661.12V672H451.169V651.28H457.649V654.48C458.262 653.36 459.196 652.48 460.449 651.84C461.702 651.173 462.996 650.84 464.329 650.84C466.942 650.84 468.996 651.693 470.489 653.4C472.009 655.08 472.769 657.213 472.769 659.8V672H466.249V661.12C466.249 659.76 465.876 658.667 465.129 657.84C464.382 657.013 463.329 656.6 461.969 656.6C460.636 656.6 459.582 657.027 458.809 657.88C458.036 658.707 457.649 659.787 457.649 661.12ZM493.358 671V668.72C492.825 669.787 491.892 670.627 490.558 671.24C489.252 671.853 487.932 672.16 486.598 672.16C483.692 672.16 481.385 671.12 479.678 669.04C477.972 666.96 477.118 664.453 477.118 661.52C477.118 658.48 477.972 655.947 479.678 653.92C481.385 651.893 483.705 650.88 486.638 650.88C489.225 650.88 491.252 651.707 492.718 653.36C493.012 653.733 493.198 654 493.278 654.16V651.28H499.758V671.16C499.758 674.467 498.705 676.853 496.598 678.32C494.518 679.813 491.785 680.56 488.398 680.56C486.292 680.56 484.278 680.173 482.358 679.4C480.465 678.653 479.038 677.493 478.078 675.92C477.625 675.173 477.358 674.6 477.278 674.2H484.958C484.985 674.253 485.092 674.373 485.278 674.56C485.545 674.773 485.758 674.92 485.918 675C486.718 675.347 487.545 675.52 488.398 675.52C489.945 675.52 491.158 675.147 492.038 674.4C492.918 673.653 493.358 672.52 493.358 671ZM493.358 661.52C493.358 660 492.918 658.773 492.038 657.84C491.185 656.88 490.012 656.4 488.518 656.4C487.052 656.4 485.878 656.88 484.998 657.84C484.118 658.8 483.678 660.027 483.678 661.52C483.678 662.987 484.118 664.213 484.998 665.2C485.878 666.16 487.052 666.64 488.518 666.64C489.985 666.64 491.158 666.16 492.038 665.2C492.918 664.24 493.358 663.013 493.358 661.52ZM515.545 664.36L512.625 664.12C511.505 664.04 510.478 663.867 509.545 663.6C508.612 663.333 507.732 662.947 506.905 662.44C506.105 661.933 505.465 661.253 504.985 660.4C504.532 659.52 504.305 658.507 504.305 657.36C504.305 656.107 504.598 655.027 505.185 654.12C505.772 653.213 506.558 652.533 507.545 652.08C508.532 651.6 509.545 651.253 510.585 651.04C511.652 650.827 512.772 650.72 513.945 650.72C516.425 650.72 518.652 651.2 520.625 652.16C522.598 653.093 523.838 654.627 524.345 656.76H517.505L517.145 656.4C516.425 655.68 515.345 655.32 513.905 655.32C511.905 655.32 510.905 655.867 510.905 656.96C510.905 657.92 511.718 658.467 513.345 658.6L514.665 658.72C515.012 658.747 515.478 658.787 516.065 658.84C518.758 659 520.865 659.587 522.385 660.6C523.932 661.587 524.705 663.307 524.705 665.76C524.705 667.093 524.398 668.227 523.785 669.16C523.198 670.093 522.385 670.8 521.345 671.28C520.332 671.733 519.278 672.053 518.185 672.24C517.118 672.453 515.958 672.56 514.705 672.56C512.678 672.56 510.665 672.173 508.665 671.4C506.665 670.627 505.305 669.467 504.585 667.92C504.185 667.2 503.945 666.6 503.865 666.12H510.865C511.078 666.813 511.785 667.32 512.985 667.64C513.438 667.8 514.012 667.88 514.705 667.88C516.945 667.88 518.065 667.307 518.065 666.16C518.065 665.067 517.225 664.467 515.545 664.36ZM545.748 666.28V672H539.268C534.548 672 532.188 669.8 532.188 665.4V656.68H526.828V651.28H532.188V643.6H538.708V651.28H545.748V656.68H538.708V663.12C538.708 664.293 538.935 665.12 539.388 665.6C539.841 666.053 540.655 666.28 541.828 666.28H545.748ZM560.073 650.76C563.459 650.76 566.153 651.773 568.153 653.8C570.153 655.8 571.153 658.453 571.153 661.76V662.88H555.393C555.553 664.24 556.099 665.347 557.033 666.2C557.966 667.027 559.126 667.44 560.513 667.44C561.713 667.44 562.659 667.227 563.353 666.8C563.833 666.587 564.219 666.267 564.513 665.84H570.953C570.766 667.2 570.113 668.413 568.993 669.48C567.873 670.52 566.579 671.293 565.113 671.8C563.833 672.28 562.299 672.52 560.513 672.52C557.153 672.52 554.393 671.533 552.233 669.56C550.073 667.56 548.993 664.92 548.993 661.64C548.993 658.333 550.019 655.693 552.073 653.72C554.153 651.747 556.819 650.76 560.073 650.76ZM560.073 655.48C558.926 655.48 557.939 655.787 557.113 656.4C556.313 656.987 555.779 657.827 555.513 658.92H564.633C564.019 656.627 562.499 655.48 560.073 655.48ZM582.063 661.12V672H575.583V651.28H582.063V654.48C582.676 653.36 583.61 652.48 584.863 651.84C586.116 651.173 587.41 650.84 588.743 650.84C591.356 650.84 593.41 651.693 594.903 653.4C596.423 655.08 597.183 657.213 597.183 659.8V672H590.663V661.12C590.663 659.76 590.29 658.667 589.543 657.84C588.796 657.013 587.743 656.6 586.383 656.6C585.05 656.6 583.996 657.027 583.223 657.88C582.45 658.707 582.063 659.787 582.063 661.12Z" fill="white"/>
<path d="M1082.44 672V643.6H1098.84C1101.64 643.6 1103.92 644.227 1105.68 645.48C1107.47 646.707 1108.36 648.653 1108.36 651.32C1108.36 652.013 1108.25 652.68 1108.04 653.32C1107.35 655.08 1106.12 656.307 1104.36 657C1104.87 657.16 1105.47 657.453 1106.16 657.88C1108.11 659.293 1109.08 661.293 1109.08 663.88C1109.08 666.627 1108.13 668.667 1106.24 670C1104.37 671.333 1102 672 1099.12 672H1082.44ZM1097.76 649.08H1089.12V654.68H1097.76C1100.21 654.68 1101.44 653.747 1101.44 651.88C1101.44 650.813 1101.11 650.08 1100.44 649.68C1099.8 649.28 1098.91 649.08 1097.76 649.08ZM1097.92 660.16H1089.12V666.52H1097.92C1100.75 666.52 1102.16 665.453 1102.16 663.32C1102.16 661.213 1100.75 660.16 1097.92 660.16ZM1124.19 650.76C1127.47 650.76 1130.18 651.773 1132.31 653.8C1134.47 655.827 1135.55 658.44 1135.55 661.64C1135.55 664.867 1134.46 667.493 1132.27 669.52C1130.08 671.52 1127.39 672.52 1124.19 672.52C1120.94 672.52 1118.23 671.507 1116.07 669.48C1113.91 667.453 1112.83 664.84 1112.83 661.64C1112.83 658.413 1113.92 655.8 1116.11 653.8C1118.3 651.773 1120.99 650.76 1124.19 650.76ZM1124.19 666.88C1125.26 666.88 1126.18 666.6 1126.95 666.04C1127.75 665.48 1128.34 664.707 1128.71 663.72C1128.92 663.027 1129.03 662.333 1129.03 661.64C1129.03 660.947 1128.92 660.253 1128.71 659.56C1127.91 657.453 1126.4 656.4 1124.19 656.4C1122.72 656.4 1121.54 656.907 1120.63 657.92C1119.75 658.933 1119.31 660.173 1119.31 661.64C1119.31 663.107 1119.76 664.347 1120.67 665.36C1121.58 666.373 1122.75 666.88 1124.19 666.88ZM1146.56 661.88V672H1140.08V651.28H1146.56V654.52C1147.66 652.333 1149.75 651.24 1152.84 651.24H1157.28V657.64H1151.6C1149.95 657.64 1148.7 657.96 1147.84 658.6C1146.99 659.213 1146.56 660.307 1146.56 661.88ZM1171.49 650.76C1174.77 650.76 1177.48 651.773 1179.61 653.8C1181.77 655.827 1182.85 658.44 1182.85 661.64C1182.85 664.867 1181.76 667.493 1179.57 669.52C1177.39 671.52 1174.69 672.52 1171.49 672.52C1168.24 672.52 1165.53 671.507 1163.37 669.48C1161.21 667.453 1160.13 664.84 1160.13 661.64C1160.13 658.413 1161.23 655.8 1163.41 653.8C1165.6 651.773 1168.29 650.76 1171.49 650.76ZM1171.49 666.88C1172.56 666.88 1173.48 666.6 1174.25 666.04C1175.05 665.48 1175.64 664.707 1176.01 663.72C1176.23 663.027 1176.33 662.333 1176.33 661.64C1176.33 660.947 1176.23 660.253 1176.01 659.56C1175.21 657.453 1173.71 656.4 1171.49 656.4C1170.03 656.4 1168.84 656.907 1167.93 657.92C1167.05 658.933 1166.61 660.173 1166.61 661.64C1166.61 663.107 1167.07 664.347 1167.97 665.36C1168.88 666.373 1170.05 666.88 1171.49 666.88ZM1193.87 661.12V672H1187.39V651.28H1193.87V654.48C1194.48 653.36 1195.41 652.48 1196.67 651.84C1197.92 651.173 1199.21 650.84 1200.55 650.84C1203.16 650.84 1205.21 651.693 1206.71 653.4C1208.23 655.08 1208.99 657.213 1208.99 659.8V672H1202.47V661.12C1202.47 659.76 1202.09 658.667 1201.35 657.84C1200.6 657.013 1199.55 656.6 1198.19 656.6C1196.85 656.6 1195.8 657.027 1195.03 657.88C1194.25 658.707 1193.87 659.787 1193.87 661.12Z" fill="white"/>
</svg>
