<svg width="520" height="664" viewBox="0 0 520 664" fill="none" xmlns="http://www.w3.org/2000/svg">
<circle cx="237.412" cy="259.841" r="34" transform="rotate(22.9488 237.412 259.841)" stroke="#34324C" stroke-width="3"/>
<path d="M188.196 370.945C180.76 388.509 160.709 396.771 143.436 389.457C126.162 382.144 118.141 361.995 125.578 344.431C133.015 326.867 153.066 318.605 170.339 325.919C187.613 333.232 195.633 353.381 188.196 370.945Z" stroke="#34324C" stroke-width="3"/>
<line x1="140.025" y1="97.9717" x2="132.317" y2="136.969" stroke="#34324C" stroke-width="3"/>
<line x1="296.172" y1="465.33" x2="281.281" y2="517.133" stroke="#34324C" stroke-width="3"/>
<line x1="213.032" y1="291.523" x2="189.128" y2="327.184" stroke="#34324C" stroke-width="3"/>
<line x1="301.632" y1="197.072" x2="317.707" y2="221.487" stroke="#34324C" stroke-width="3"/>
<line x1="267.031" y1="201.481" x2="254.79" y2="226.232" stroke="#34324C" stroke-width="3"/>
<line x1="202.329" y1="237.195" x2="171.779" y2="213.694" stroke="#34324C" stroke-width="3"/>
<line x1="127.365" y1="265.967" x2="130.647" y2="237.422" stroke="#34324C" stroke-width="3"/>
<line x1="51.3798" y1="141.917" x2="90.6592" y2="165.592" stroke="#34324C" stroke-width="3"/>
<line x1="400.16" y1="368.157" x2="353.173" y2="383.478" stroke="#34324C" stroke-width="3"/>
<line x1="127.203" y1="385.838" x2="103.877" y2="407.657" stroke="#34324C" stroke-width="3"/>
<path d="M251.747 425.832L201 444" stroke="#34324C" stroke-width="3"/>
<line x1="353.517" y1="546.497" x2="310.094" y2="549.241" stroke="#34324C" stroke-width="3"/>
<line x1="427.123" y1="575.365" x2="399.56" y2="553.13" stroke="#34324C" stroke-width="3"/>
<line x1="145" y1="447.5" x2="117" y2="447.5" stroke="#34324C" stroke-width="3"/>
<line x1="30.8475" y1="374.63" x2="55.2492" y2="404.332" stroke="#34324C" stroke-width="3"/>
<path d="M397.168 550.648C393.517 559.27 383.349 563.257 374.425 559.479C365.501 555.7 361.287 545.623 364.938 537.001C368.589 528.379 378.758 524.391 387.682 528.17C396.606 531.948 400.819 542.025 397.168 550.648Z" stroke="#34324C" stroke-width="2"/>
<path d="M474.663 365.284C465.915 385.945 442.936 395.831 423.419 387.567C403.902 379.303 395.009 355.922 403.758 335.261C412.506 314.599 435.484 304.714 455.002 312.978C474.519 321.242 483.412 344.622 474.663 365.284Z" stroke="#34324C" stroke-width="3"/>
<path d="M195.21 67.134C186.354 88.049 163.083 98.0546 143.31 89.6826C123.538 81.3105 114.528 57.6361 123.383 36.7211C132.239 15.8061 155.511 5.80054 175.283 14.1726C195.055 22.5446 204.066 46.219 195.21 67.134Z" stroke="#34324C" stroke-width="3"/>
<path d="M52.7788 132.134C43.923 153.049 20.6517 163.055 0.87929 154.683C-18.8931 146.311 -27.9036 122.636 -19.0477 101.721C-10.1919 80.8061 13.0794 70.8005 32.8518 79.1726C52.6242 87.5446 61.6347 111.219 52.7788 132.134Z" stroke="#34324C" stroke-width="3"/>
<circle cx="3.53214" cy="345.423" r="34" transform="rotate(22.9488 3.53214 345.423)" stroke="#34324C" stroke-width="3"/>
<path d="M421.529 617.217L432.102 577.535L471.032 564.462L499.258 590.949L488.685 630.631L449.754 643.703L421.529 617.217Z" stroke="#3C3B54" stroke-width="3"/>
<path d="M226.664 560.581L241.342 525.916L278.499 519.88L300.908 548.419L286.231 583.084L249.074 589.12L226.664 560.581Z" stroke="#3C3B54" stroke-width="3"/>
<path d="M38.2286 431.842L64.6169 404.995L101.393 413.034L111.748 447.811L85.3596 474.657L48.5838 466.619L38.2286 431.842Z" stroke="#3C3B54" stroke-width="3"/>
<path d="M97.2004 209.283L98.1343 168.67L133.185 148.132L167.225 168.163L166.292 208.776L131.241 229.314L97.2004 209.283Z" stroke="#3C3B54" stroke-width="3"/>
<path d="M312.347 245.467L320.94 225.174L342.692 221.64L355.781 238.31L347.189 258.603L325.437 262.137L312.347 245.467Z" stroke="#3C3B54" stroke-width="3"/>
<path d="M165.853 431.568L187.539 435.49L195.767 455.934L182.381 472.367L160.696 468.444L152.468 448.001L165.853 431.568Z" stroke="#3C3B54" stroke-width="3"/>
<path d="M127.278 274.264L142.249 285.762L140.489 304.558L123.862 311.809L108.891 300.311L110.651 281.516L127.278 274.264Z" stroke="#3C3B54" stroke-width="3"/>
<path d="M249.878 173.931L261.868 145.614L292.221 140.682L310.515 163.98L298.524 192.297L268.171 197.229L249.878 173.931Z" stroke="#3C3B54" stroke-width="3"/>
<path d="M312.96 354.056L353.419 386.817L345.059 438.201L296.229 456.828L255.77 424.068L264.13 372.684L312.96 354.056Z" stroke="#3C3B54" stroke-width="3"/>
</svg>
