<svg width="728" height="187" viewBox="0 0 728 187" fill="none" xmlns="http://www.w3.org/2000/svg">
<circle cx="672" cy="56" r="55.5" stroke="black"/>
<path d="M116.415 37.721C116.261 37.4919 115.95 37.431 115.721 37.5851L111.987 40.0958C111.757 40.2499 111.697 40.5605 111.851 40.7897C112.005 41.0189 112.315 41.0797 112.545 40.9257L115.864 38.6939L118.096 42.0134C118.25 42.2426 118.561 42.3035 118.79 42.1494C119.019 41.9953 119.08 41.6847 118.926 41.4555L116.415 37.721ZM86.5851 186.279C86.7391 186.508 87.0498 186.569 87.279 186.415L91.0134 183.904C91.2426 183.75 91.3035 183.439 91.1494 183.21C90.9953 182.981 90.6847 182.92 90.4555 183.074L87.136 185.306L84.9042 181.987C84.7501 181.757 84.4395 181.697 84.2103 181.851C83.9811 182.005 83.9203 182.315 84.0743 182.545L86.5851 186.279ZM115.509 37.9039L86.5093 185.904L87.4907 186.096L116.491 38.0961L115.509 37.9039Z" fill="black"/>
<path d="M339.415 37.721C339.261 37.4919 338.95 37.431 338.721 37.5851L334.987 40.0958C334.757 40.2499 334.697 40.5605 334.851 40.7897C335.005 41.0189 335.315 41.0797 335.545 40.9257L338.864 38.6939L341.096 42.0134C341.25 42.2426 341.561 42.3035 341.79 42.1494C342.019 41.9953 342.08 41.6847 341.926 41.4555L339.415 37.721ZM309.585 186.279C309.739 186.508 310.05 186.569 310.279 186.415L314.013 183.904C314.243 183.75 314.303 183.439 314.149 183.21C313.995 182.981 313.685 182.92 313.455 183.074L310.136 185.306L307.904 181.987C307.75 181.757 307.439 181.697 307.21 181.851C306.981 182.005 306.92 182.315 307.074 182.545L309.585 186.279ZM338.509 37.9039L309.509 185.904L310.491 186.096L339.491 38.0961L338.509 37.9039Z" fill="black"/>
<path d="M384.413 61.7183C384.258 61.4902 383.946 61.4313 383.718 61.5869L380 64.1219C379.772 64.2775 379.713 64.5885 379.869 64.8167C380.024 65.0448 380.335 65.1037 380.564 64.9481L383.869 62.6948L386.122 65.9997C386.277 66.2278 386.589 66.2867 386.817 66.1311C387.045 65.9756 387.104 65.6645 386.948 65.4364L384.413 61.7183ZM369.587 136.282C369.742 136.51 370.054 136.569 370.282 136.413L374 133.878C374.228 133.723 374.287 133.411 374.131 133.183C373.976 132.955 373.665 132.896 373.436 133.052L370.131 135.305L367.878 132C367.723 131.772 367.411 131.713 367.183 131.869C366.955 132.024 366.896 132.335 367.052 132.564L369.587 136.282ZM383.509 61.9071L369.509 135.907L370.491 136.093L384.491 62.0929L383.509 61.9071Z" fill="black"/>
<path d="M421.413 61.7183C421.258 61.4902 420.946 61.4313 420.718 61.5869L417 64.1219C416.772 64.2775 416.713 64.5885 416.869 64.8167C417.024 65.0448 417.335 65.1037 417.564 64.9481L420.869 62.6948L423.122 65.9997C423.277 66.2278 423.589 66.2867 423.817 66.1311C424.045 65.9756 424.104 65.6645 423.948 65.4364L421.413 61.7183ZM406.587 136.282C406.742 136.51 407.054 136.569 407.282 136.413L411 133.878C411.228 133.723 411.287 133.411 411.131 133.183C410.976 132.955 410.665 132.896 410.436 133.052L407.131 135.305L404.878 132C404.723 131.772 404.411 131.713 404.183 131.869C403.955 132.024 403.896 132.335 404.052 132.564L406.587 136.282ZM420.509 61.9071L406.509 135.907L407.491 136.093L421.491 62.0929L420.509 61.9071Z" fill="black"/>
<path d="M0.646447 20.6464C0.451184 20.8417 0.451184 21.1583 0.646447 21.3536L3.82843 24.5355C4.02369 24.7308 4.34027 24.7308 4.53553 24.5355C4.7308 24.3403 4.7308 24.0237 4.53553 23.8284L1.70711 21L4.53553 18.1716C4.7308 17.9763 4.7308 17.6597 4.53553 17.4645C4.34027 17.2692 4.02369 17.2692 3.82843 17.4645L0.646447 20.6464ZM465.354 21.3536C465.549 21.1583 465.549 20.8417 465.354 20.6465L462.172 17.4645C461.976 17.2692 461.66 17.2692 461.464 17.4645C461.269 17.6598 461.269 17.9764 461.464 18.1716L464.293 21L461.464 23.8285C461.269 24.0237 461.269 24.3403 461.464 24.5356C461.66 24.7308 461.976 24.7308 462.172 24.5356L465.354 21.3536ZM1 21.5L465 21.5L465 20.5L1 20.5L1 21.5Z" fill="black"/>
</svg>
